<mxfile host="app.diagrams.net" agent="Mozilla/5.0 (Windows NT 10.0; Win64; x64) AppleWebKit/537.36 (KHTML, like Gecko) Chrome/140.0.0.0 Safari/537.36" version="28.2.5">
  <diagram name="Page-1" id="UsckbN0vA2u_E6PNjCC6">
    <mxGraphModel dx="1426" dy="761" grid="1" gridSize="10" guides="1" tooltips="1" connect="1" arrows="1" fold="1" page="1" pageScale="1" pageWidth="850" pageHeight="1100" math="0" shadow="0">
      <root>
        <mxCell id="0" />
        <mxCell id="1" parent="0" />
        <mxCell id="-JbPtTbqDn5eovDhBWH9-1" value="" style="verticalLabelPosition=bottom;html=1;verticalAlign=top;align=center;strokeColor=none;fillColor=#00BEF2;shape=mxgraph.azure.user;" vertex="1" parent="1">
          <mxGeometry x="40" y="180" width="60" height="60" as="geometry" />
        </mxCell>
        <mxCell id="-JbPtTbqDn5eovDhBWH9-2" value="Jenga" style="swimlane;whiteSpace=wrap;html=1;swimlaneFillColor=none;connectable=1;noLabel=0;swimlaneHead=1;absoluteArcSize=0;fixDash=0;dropTarget=1;collapsible=0;horizontal=1;swimlaneBody=1;fillOpacity=0;strokeOpacity=100;align=left;fontStyle=1;fontSize=16;dashed=1;strokeWidth=3;swimlaneLine=0;fillColor=light-dark(#FFFFFF,#415666);" vertex="1" parent="1">
          <mxGeometry x="180" y="40" width="590" height="540" as="geometry" />
        </mxCell>
        <mxCell id="-JbPtTbqDn5eovDhBWH9-3" value="Frontend" style="swimlane;whiteSpace=wrap;html=1;collapsible=0;swimlaneLine=0;align=left;fillStyle=auto;swimlaneFillColor=light-dark(#FFFFFF,#415666);fillColor=light-dark(#FFFFFF,#2E3E49);strokeColor=default;strokeWidth=1;" vertex="1" parent="-JbPtTbqDn5eovDhBWH9-2">
          <mxGeometry x="20" y="140" width="150" height="180" as="geometry" />
        </mxCell>
        <mxCell id="-JbPtTbqDn5eovDhBWH9-4" value="AI Assistant" style="sketch=0;points=[[0,0,0],[0.25,0,0],[0.5,0,0],[0.75,0,0],[1,0,0],[0,1,0],[0.25,1,0],[0.5,1,0],[0.75,1,0],[1,1,0],[0,0.25,0],[0,0.5,0],[0,0.75,0],[1,0.25,0],[1,0.5,0],[1,0.75,0]];outlineConnect=0;fontColor=#232F3E;fillColor=#01A88D;strokeColor=#ffffff;dashed=0;verticalLabelPosition=bottom;verticalAlign=top;align=center;html=1;fontSize=12;fontStyle=0;aspect=fixed;shape=mxgraph.aws4.resourceIcon;resIcon=mxgraph.aws4.augmented_ai;" vertex="1" parent="-JbPtTbqDn5eovDhBWH9-3">
          <mxGeometry x="31" y="100" width="49" height="49" as="geometry" />
        </mxCell>
        <mxCell id="-JbPtTbqDn5eovDhBWH9-5" value="" style="shape=image;verticalLabelPosition=bottom;labelBackgroundColor=default;verticalAlign=top;aspect=fixed;imageAspect=0;image=https://www.solidjs.com/img/logo/dark-with-wordmark/logo.png;shadow=1;" vertex="1" parent="-JbPtTbqDn5eovDhBWH9-3">
          <mxGeometry x="63.92" width="86.08" height="15.92" as="geometry" />
        </mxCell>
        <mxCell id="-JbPtTbqDn5eovDhBWH9-6" value="" style="shape=image;verticalLabelPosition=bottom;labelBackgroundColor=default;verticalAlign=top;aspect=fixed;imageAspect=0;image=https://upload.wikimedia.org/wikipedia/commons/thumb/d/d5/Progressive_Web_Apps_Logo.svg/1920px-Progressive_Web_Apps_Logo.svg.png;" vertex="1" parent="-JbPtTbqDn5eovDhBWH9-3">
          <mxGeometry x="86.49000000000001" y="60" width="53.09" height="20" as="geometry" />
        </mxCell>
        <mxCell id="-JbPtTbqDn5eovDhBWH9-7" value="" style="sketch=0;outlineConnect=0;fontColor=#ffffff;strokeColor=#001DBC;fillColor=#0050ef;dashed=0;verticalLabelPosition=bottom;verticalAlign=top;align=center;html=1;fontSize=12;fontStyle=0;aspect=fixed;shape=mxgraph.aws4.illustration_devices;pointerEvents=1" vertex="1" parent="-JbPtTbqDn5eovDhBWH9-3">
          <mxGeometry x="15.21" y="30" width="54.79" height="40" as="geometry" />
        </mxCell>
        <mxCell id="-JbPtTbqDn5eovDhBWH9-8" value="Backend" style="swimlane;whiteSpace=wrap;html=1;collapsible=0;swimlaneLine=0;align=left;swimlaneFillColor=light-dark(#FFFFFF,#415666);fillColor=light-dark(#FFFFFF,#2E3E49);" vertex="1" parent="-JbPtTbqDn5eovDhBWH9-2">
          <mxGeometry x="190" y="40" width="380" height="470" as="geometry" />
        </mxCell>
        <mxCell id="-JbPtTbqDn5eovDhBWH9-9" value="Server" style="swimlane;whiteSpace=wrap;html=1;collapsible=0;swimlaneLine=0;align=left;fontColor=default;fillColor=none;swimlaneFillColor=light-dark(#FFFFFF,#666666);strokeColor=default;" vertex="1" parent="-JbPtTbqDn5eovDhBWH9-8">
          <mxGeometry x="20" y="80" width="330" height="210" as="geometry" />
        </mxCell>
        <mxCell id="-JbPtTbqDn5eovDhBWH9-10" style="edgeStyle=orthogonalEdgeStyle;rounded=0;orthogonalLoop=1;jettySize=auto;html=1;exitX=1;exitY=0.5;exitDx=0;exitDy=0;entryX=0;entryY=0.5;entryDx=0;entryDy=0;" edge="1" parent="-JbPtTbqDn5eovDhBWH9-9" source="-JbPtTbqDn5eovDhBWH9-11" target="-JbPtTbqDn5eovDhBWH9-14">
          <mxGeometry relative="1" as="geometry" />
        </mxCell>
        <mxCell id="-JbPtTbqDn5eovDhBWH9-11" value="Jenga API" style="rounded=0;whiteSpace=wrap;html=1;" vertex="1" parent="-JbPtTbqDn5eovDhBWH9-9">
          <mxGeometry x="20" y="42.5" width="100" height="55" as="geometry" />
        </mxCell>
        <mxCell id="-JbPtTbqDn5eovDhBWH9-12" style="edgeStyle=orthogonalEdgeStyle;rounded=0;orthogonalLoop=1;jettySize=auto;html=1;exitX=0.5;exitY=0;exitDx=0;exitDy=0;entryX=0.5;entryY=1;entryDx=0;entryDy=0;" edge="1" parent="-JbPtTbqDn5eovDhBWH9-9" source="-JbPtTbqDn5eovDhBWH9-13" target="-JbPtTbqDn5eovDhBWH9-11">
          <mxGeometry relative="1" as="geometry" />
        </mxCell>
        <mxCell id="-JbPtTbqDn5eovDhBWH9-13" value="MCP Server API" style="rounded=0;whiteSpace=wrap;html=1;" vertex="1" parent="-JbPtTbqDn5eovDhBWH9-9">
          <mxGeometry x="20" y="117" width="100" height="55" as="geometry" />
        </mxCell>
        <mxCell id="-JbPtTbqDn5eovDhBWH9-14" value="Business Logic" style="rounded=0;whiteSpace=wrap;html=1;" vertex="1" parent="-JbPtTbqDn5eovDhBWH9-9">
          <mxGeometry x="180" y="42.5" width="100" height="55" as="geometry" />
        </mxCell>
        <mxCell id="-JbPtTbqDn5eovDhBWH9-15" value="" style="shape=image;verticalLabelPosition=bottom;labelBackgroundColor=default;verticalAlign=top;aspect=fixed;imageAspect=0;image=https://quarkus.io/assets/images/brand/quarkus_logo_horizontal_450px_reverse.png;shadow=1;imageBorder=none;imageBackground=none;" vertex="1" parent="-JbPtTbqDn5eovDhBWH9-9">
          <mxGeometry x="220" width="110" height="17.32" as="geometry" />
        </mxCell>
        <mxCell id="-JbPtTbqDn5eovDhBWH9-16" value="Files" style="sketch=0;html=1;aspect=fixed;strokeColor=none;shadow=0;fillColor=#3B8DF1;verticalAlign=top;labelPosition=center;verticalLabelPosition=bottom;shape=mxgraph.gcp2.files" vertex="1" parent="-JbPtTbqDn5eovDhBWH9-8">
          <mxGeometry x="210.71" y="321.75" width="52.58" height="51" as="geometry" />
        </mxCell>
        <mxCell id="-JbPtTbqDn5eovDhBWH9-17" value="" style="image;aspect=fixed;html=1;points=[];align=center;fontSize=12;image=img/lib/azure2/databases/Azure_Database_PostgreSQL_Server.svg;" vertex="1" parent="-JbPtTbqDn5eovDhBWH9-8">
          <mxGeometry x="304.25" y="321.75" width="43.5" height="58" as="geometry" />
        </mxCell>
        <mxCell id="-JbPtTbqDn5eovDhBWH9-18" value="PostgreSQL" style="text;html=1;align=center;verticalAlign=middle;whiteSpace=wrap;rounded=0;" vertex="1" parent="-JbPtTbqDn5eovDhBWH9-8">
          <mxGeometry x="286" y="378.75" width="76" height="30" as="geometry" />
        </mxCell>
        <mxCell id="-JbPtTbqDn5eovDhBWH9-19" value="" style="image;aspect=fixed;html=1;points=[];align=center;fontSize=12;image=img/lib/azure2/ai_machine_learning/Azure_OpenAI.svg;" vertex="1" parent="-JbPtTbqDn5eovDhBWH9-8">
          <mxGeometry x="214.29000000000002" y="400.75" width="49" height="49" as="geometry" />
        </mxCell>
        <mxCell id="-JbPtTbqDn5eovDhBWH9-20" value="" style="endArrow=classic;startArrow=classic;html=1;rounded=0;exitX=0.498;exitY=0.016;exitDx=0;exitDy=0;exitPerimeter=0;entryX=0.5;entryY=1;entryDx=0;entryDy=0;" edge="1" parent="-JbPtTbqDn5eovDhBWH9-8" source="-JbPtTbqDn5eovDhBWH9-16">
          <mxGeometry width="50" height="50" relative="1" as="geometry">
            <mxPoint x="112" y="277.5" as="sourcePoint" />
            <mxPoint x="237" y="290" as="targetPoint" />
          </mxGeometry>
        </mxCell>
        <mxCell id="-JbPtTbqDn5eovDhBWH9-21" value="LLM" style="text;html=1;align=center;verticalAlign=middle;whiteSpace=wrap;rounded=0;" vertex="1" parent="-JbPtTbqDn5eovDhBWH9-8">
          <mxGeometry x="199.79000000000002" y="442" width="76" height="30" as="geometry" />
        </mxCell>
        <mxCell id="-JbPtTbqDn5eovDhBWH9-22" value="" style="endArrow=classic;startArrow=classic;html=1;rounded=0;entryX=0.5;entryY=1;entryDx=0;entryDy=0;" edge="1" parent="-JbPtTbqDn5eovDhBWH9-8">
          <mxGeometry width="50" height="50" relative="1" as="geometry">
            <mxPoint x="324" y="320" as="sourcePoint" />
            <mxPoint x="323.58000000000004" y="288.75" as="targetPoint" />
          </mxGeometry>
        </mxCell>
        <mxCell id="-JbPtTbqDn5eovDhBWH9-23" value="MCP Server" style="swimlane;whiteSpace=wrap;html=1;collapsible=0;swimlaneLine=0;align=left;fontColor=default;fillColor=none;swimlaneFillColor=light-dark(#FFFFFF,#666666);strokeColor=default;" vertex="1" parent="-JbPtTbqDn5eovDhBWH9-8">
          <mxGeometry x="20" y="330" width="140" height="110" as="geometry" />
        </mxCell>
        <mxCell id="-JbPtTbqDn5eovDhBWH9-24" value="" style="shape=image;verticalLabelPosition=bottom;labelBackgroundColor=default;verticalAlign=top;aspect=fixed;imageAspect=0;image=data:image/png,iVBORw0KGgoAAAANSUhEUgAAAK0AAACsCAYAAAAJ8yzmAAAAAXNSR0IArs4c6QAAAARnQU1BAACxjwv8YQUAAAAJcEhZcwAADsMAAA7DAcdvqGQAAFIdSURBVHhe7V0HgBTFtj0zmxMsGSTnbM4KmAUEEz7F8PQrGEAl55xzzgoSFFQwICZERCWKked7ighIDiqwsHl34r+nqntndnfSksE50LMz3V351K17q29VW9wChBHGBQSr8TeMMC4YhEkbxgWHMGnDuOAQJu1pwJk3CpiCeQTCP8M8CRtipwxvMlmMv96/9TmeSUvLwIFDf2Hf3n3Ys3sfUjPSkZubDYfdgdi4eCTGx6NChfKoXqOq/K2ASuXLGMEZ2sUvAm85Y6ZHmPm4+OVQmLSnDSSVWZUkjibUth178NWX6/D5qnX4ZtO3cLktcDmj4HRGglVviQWiIyKRk2mDxRKBCKsb1gin/M1B8iVV8OTD9+COO5uiccO6iIuNUXF6SGx2Ch5m2t5EvjgRJu3pAPkjPGVNOhwOpKRmYO3ajZg4dTb+9+MPUstlEJMYh/hEIZ3cY3WbpHbDbRHi+mgB4TZcDidOnMiQSDNRr0F1PP7vR/Dov1qjdKmSiIqyCsl5Jz/M45+BMGlPB4S0NrsNf+w9gC/WbMCchW9j3/ZdiC9WDJFRUUJNIZgiqDnEeyCC1Qskni8GW+FwupGTnomSpRLwbLvHccddt6B+7apITEzgDXKESRtGQJhVpolyUPTUr77agAWL38ePP25DXEwMIqIjDAq64ZIv/G6h+FRhvcPz8IZ53TzvfV2ksvxLP5GOMhXK4Pln2uCe5rejZq1qiI6OMu7xRv58XiwIk7YI8FDAJJYVW/7zP0ybsQhfrf8G2Rk2RMeKkmrcqDgqP7QKwB9COa/a1td9o/B95gkdyCFqCNwOXHVFIzz91EO4+65mSEqMl3OieuTdb4a5uIyzMGmLBJMIFuTanVj2znLMn7cMv27bhUiRrlbr2SSHG07RSxy5DlQqn4S2j9yP59o/iRLJyZI9Uw3ReQ2T9h8NTYasbBumzpyP+fPfQ3pahhCWQ7NJkLMFqh2iLYtkdTnsiLJG4P77b8Xo0QMRH2uqChcfYYkwaYuIVCHpiHGzsPSdT0TKOWGNICkKG1hnBdQh3KI7yx+X24XcHDtuadIICxfNRmKc2ZEuPtJefCU6g0gV633ExDmYu2AZbKIeRERQkp0jwgpolhEuq+jNkW7Exkdj5Sf/Q/tnO8HhZL4uzuYNk9YP9PDDhneqXynHUzF11iIsnP8OYqNjECl84cxAQIhu6bLmPzjt5RaSMVb5JuRy6MPthJPXJEoabeqQe9T93laZF/Rpl/w153rdSK4Qhc9Xfof+A8YiPT1dXc8PnfKFjLB64BdsWFaNBSdSMzFlziJMmb4AcZExImGL1tcpERmT0yEEdNphjYxEYmIsEuIS4cx2iAEXKUR2we5yIOXECbnRJiEiEUFdWYw7ElLHEASqI8mH8DIKDnTr3g7tn3kc8fFxxg2EGY+W0hciwqT1Cy2NUtOzMWbSXMyeuxixUVGIFIOnaBBpahPdV6Rr5UqVUaNqeZSveAnq1amMUqVKID4uDpGR0cjKysAxkebbdx/C0UN7sXPHYew6uB85WXZEx8TAoh9/BQRlM0lLKe0U4pcvXwLDh/VGizubkvsGLlyymgiT1i/cImEzMHzsNLy24APExUYjQrV8aNXFuVVSKDcjAw0b10WLu5riuuuuRJ3a1VGiZAnExUQbd+aH3eFGZmYGduzcgy3/+QWfr16HTd/+DJcdiIyJNO7yDa1Q6BxSdbHb7Ljjtpsxalg3VKtyCVtb3aWPCxdh0vrBidR0DBoxEcve+xRWtxDWokWVr0exmibeRLAI+ZzISf8TPbp3xn2t70DNWjWQoIbp/NVdsPI9tLPAYXdh7/4DWL16A+bNW4I9B/9GLB9eBOKcof9yOsztdCPGasegfp3xxONtRWKzDAxcNPXmfEOYtALS0KoMFMKC1NQs9Bk4Ecs/XKWGVatBWJ+gocQ/ygmGh0skZS5KlorF9Mkj0OTGq5GUSLKePFGys3Ox5edf0X/wFGz97Q+INgFEOGFxBJa8hMNhx6UNa2L6lOGoW6eacfbCJu6Fm/PTCG/CpokOO2LCDLz7wSdKugYkLGFa+mq+1IKsTBuqVy2H5cvm427RJZPE4DpVxMXF4IbrrsC7S6fjssZVYct1iLEVmm5NffmH737E9z/8pFQPjQtbToVJ64XjJ9Ixftp8zJv/HqLEwg/GV8IiVUjCcryyiURsVL8aZs0ciQb1a4nxZMu765SgOGZByeTieOetV9GwnhA3W06Gyr2YZCx5+0McF0PvYmjyMGkVrEg5kYEZc5fglVc4SxAjEjY0SUaDR8232mxo2KgGhonRc82VjRFpdUmsfCpFwp4iaSU4Jw8sklLxYol4c/EsVCxbGjk5ucYNgREvRuTGdevww0//k5yehvycY/yDSesRU2npWZg0ZT4mTn0NESJhOa1lWuKFUVi8OcRKr1OnKvr07YhmTa6DnsZleH7xVHEwwRhccFqVRL+kXClMmtwHpUskiLFG1SYwCVmWyOhkfPbZF3lnLmT8Q0lL00s/PEhNzcDgkTMwY+YixEVFKx1WPYXyRSFa5HJoQuuGz86yob6oBEOGdMZtzW4wzvIzf9UyNvPwBZ0b/9dNmHS7/ror8cS/2yA3O1OyJXnmFWPmID/0Y4loMQY/+eRLGVHS5JevGZALB/9A0prU4JOuDPTpNxqLFr+L+MQEkZCUsOZ1HgUgp2hs0WeVROEsQd06FTFhXD/c2ux6ROZpFCa1POAZz1nGbXYcfXDo14ePdL2hIrGo9WL3trwdlzaqC1sOn6AFCulWc8x/HjqOX7dul98XdrP/A0lLkuhHs4NHTMUHn65BTIxIWGthohWGniUgMlKzUL9OJcyZNRZXX9FYrgSRXiS83KKneb0pTKpRTupD/w4O6rhVq1fFrbdeB6czQ85IeJ9BzfgFkdH4ZuNm+RJKWc9f/ANJG6EezY4YOxNL3/1UKkB02JCrQdMqMysb9RtWwquvTkTjBrXljElYbzIWgHkp7zK/MF12Ah787iesHxRLjEXjxvWRVKI4XC5K6cDlSEhKwKeffW38unDxjyMtn3SNmfwqXnvjHaEK52EjRRCFShY3csVir1XzEsyZPRqN6lUViUfCehPPH9xwuZ04/PdRzJq7GFdf3xLxCRVRttxVePrZHvjmmy0St0MMrdCJS3+EevVqo37tOnBK2GDl4P3bdx+AS7ktXri4qEmrR0s2EC1s7V44RQyu2XOWIFaMLj0P61SGV0Eod0A5T11R6YtitnNTjXr1qmHM6D5oWL+O3MUIfFWhmabxVWCz2bFp8094+OEX0Lv7GOw/fAwly1dDdHwiPvp4HR54+FkMHz8Dfx87buTbfODBX/5JVqZMaVQoX1ry64TLaobxBsuhY4wWpTvzaJak/bf6faHioiat1jPZYBZRCbIwZfbrmCJSNi6avgRaNw3oq6qMLhLWotwKGzaoiUEDO6HpTdeIYaPj1UdB6HP0mmWHyM21Ye2GbzBwyHDs2LUHxcuUVA8vVNpWF2LjY8W2i8aM2W9g6bIVcr8x/+o7awZ0GvFxMUhKKqZ+a+XFN7giWAviXOl8OerchYqLmrQaQti0LIyd9CqmcVorMTFEf1jOEPDZvkWpBLVrVUGf3h1xS1POEvgiqhcUOzgNZYfDaceGjd+JdJ6C37buE1vI27dVoKS5S0gcgZioGLz22kLs23+IF9T/wHAjKipKSJ8Aa0SE/AoaQOBCdo75pO7CxEVOWj1L0G/YFMyd9zbio2LVtFaoIPcyhfB161bGmBE9cWvTGxCVR/ggVSeBLYgSlWALhgwdjl+3HUBUTJKilZaIcp0JyGHOCUeLdb/7jyPY8p+t8ss7fv9ktFglldgoWCL1hiDB4HZbcTyNKxouXFzUpOU87MARE/De+x+JJIvS87BKCoaGzIwsVK9ZDlMnD8VNN16p52EV0VhtZjw+iGKoHJu/+y86d+qPHbuPISImRoJy6Yw+NJgfRipxSRhN3njs/GO3uqrjJhX955lGVW5mLlzqyVhw0BgrmZxk/LowcdGQVtOADcfDpVbN0pVv2bLPpZDc2E0aX4wVX0YX124ZE6h5pM5MzUb9upWwcOFUXHFZA16RQ6qLf/JxiOHkIL/4VXl6WrDpuy149OGncCQlG5Ei4dUNvKQOHYGSsVp5Vv/oAws4lMGkoePOl5w3pPPY7HZRX7KNLBS+k/EzVqvLjNOGWNHpNXjFBNNi3fGcKogchP7Oz/MFFw1p8/nDconM5DlY+u4KRFq1e6FuOt/Q+2lxuGbDWpGTaUf9BpUxZ/ZYNKpXTcKzyYQQPqNgFcoFdgghP+/c+MMW/PuJR+CwJsISIQZXXkCSykMsntdyVPIo+jP3MLAgSzmMhwYLcrJtyMhIlViE3EFGEaU+WOJFpYhGjpA9x+aQwyaHHbZcJ+x2NxxicDqlKtn3mGuzI7AGPULBLM+5wUXkBK5Jm3I8A1PmvCFG1wLEiWGjl8gEBrVPSj/OEjjsNtSsXRmjRvTCTTeISqAZLTAllS+QMrmq0Tdt2oLevXph/5+5ok5oo0tLeFa2P1LR6LNI+FxUrlwGy5bORdXK5eUsy8Qw/svw69bf0av3ePzw0y+IipP7lOriDekaKm12CJGbES5UKlcae/f/JWQ/AeSmyNniopUkokGNyqhTtzqqVauM+vVqi/FZDZdUKIvk5OJq1QXnpDkjQl1d5+vc4CIirV7Tpaa1pi5Ua7D0LEHw4qnJIhGRDpE8DRtUx4CBL6PJTdd5+RIQfojD6KUKs21ZWL/hB4wcNRG/7ziMyGhv5291kxz5G1qrBpTwVtFJbaJrujFkyAC0bt0C0VE6cSUdVbjCJOEGHZ98shq9B4wX4ypXpLpL1ADfZFJlZFySpsPhhFV0fG8IEeB00AEoRzImlWE8Gr78iitw5x1NceXVjdGgbk1UvKQsoqJ8r287W7hoSMuNNMaMnYXZC99GbGSs2iaIDeQZmv2DDWrLtUujVEfffi/izttv0hRRIkrdEhAMu+arjRg7bgZ+27FX7eulyJaXtJ9I5DRvcYsRVbpEDF5+qR3atn0AiYmJ6jKvMR5N3MKdJi0jE5Mnz8b0GQsRk1hShKyQ0Q9pTWjy6qIVhDkSmJdYd7Ycu3TmXFhjonB70xvQtMm1uKXZVahZowZiY88NeS9I0urGNE0D7a01YsxszJv3JuIS40Ql8F47VaB4pmEi0k1fcSNLrO9GDatjyOBuaHrTtcY8rBw6IS8YcXm1OGP7asMmDB4wAjv+SEFkLPejNTTBvKSN+BTkqpKwzEqEWP9OlEiKxosdn8JjQtjkEvpBAWEG1zTzpGnit992osPLA+SvdBSmK2qI1RcbC4H35GXOC95h89/jkHw6cpyIFfJe2qgOWra4FQ8/3AJly5aWq4bOnxee4cw8e8d5enCBSlpmWVcU52H1qtlVUhirmiUIDF2ZvJfIyMxGvToVRWINxdVqxQFvkQ+f0ZhVJX/VVys2ffcTOnfuhP2HsmXYTFDE0dcKR0ApR5BX6haXG7HWHPTo8TIee/R+FC/OqSje4zNxAwzpRo5IwFdefQOjRs9BZFy8ZEVPpVldftSY0wSyhXuGFUuMwdVX1Uenzu1xwzVXiCpGdUaVykCwcpw8LlDSagMlVQjbZ+hkfPDhSliksaz01wsCRRwljSzIFMLWqF4OCxZMQcO6VVXD0+vL11CsoGqKktIuoSPx9brv0b7dc8iyxUqj8X0IIhOtdFzhfQXzQunLtBk3rwnxMg5g1KihQtg2SEgwpsXUNX/EY0flPVb8sOU3tHngeThE/+SDBdPYO9OkJaiBuFwspxtJMQ707dMdz/zfY3KFeTOl7pnLxwWr06aJDssVB4veeB9x0VHKH1YP/MHACuWq2RzUrX2Jci9sVK+mWMZ69iFghavo5UNu2fTjz3i0zZNwWsXy9u4sfiStaXTp+VI3Uv76DTNnz8STTzxk7P6irwdubE6pWWR0sOG++x7Dr78fRIyUXZXbnH82RpAzCZd3eYU+GUePoN1zj2Li+CGqBEqdMdWU/NVwWnDmS3gGkHIiFeMmvoqFC95UOlaoixAVpJLtudRhqymVgBLWogjFOHgEqBJpAOp2X3y5ES+0exm5lgQowWYRqaMOElY3mz+4XNQN0zBj5nT835MPG6MD02dEgZpD38P9cLt07Y8fvudGzlHGAwlJUfRj00H9TCNCRG2E9BGr1CXnsIuVKYV5cz5Gu/ZdkSZto9wrdbbOCM570uqy81NLQhJ22iuLMWPeEsQkxAvh2Oj+13QxLIdl/uOgwumeRg1rKqOLq2b17t2+SEbJZUgv40+uzYav12/C0KEj8XdKrqgEkV4S2gMzPaatnkjJQR2aswTcBmHI4O544rE2cl0iVvn3lwcTLIcLhw//hQGDxuG9d1cLURIlBDPmqSEfNaDAmD2x57+/4KGh86TL4Assk/GV98iP4mXi8NEnm9ClxzDsO/hn8CKdAi4A9cBsGL2Rxrjpr2HGrNcRp5xf1A1+ockiVW8MmXa7DY0b1RIdrCOa3mzOw/qTTkyTnUF/tdtcWLtxE0aPnYCtvx4QKUejSQjLjlFoSDZby9O4LrsdpZNj0bHD03ji8YeQxLfSqGuBWlalrrB33wFMmjQPy975DJa4aAnG6a0gFaDgTTAdH3+6fJXb7IBSHh0zyxYofx6oR+F2CSd/Hn20Jbp2aaceTHgQWjyh4AIhLZTRNWT0LCxcsky58EWGspOGVJRJ2OyMbNQVlWDE0K7KvVBPI/HwQ1pekqHPBRtcTiu+/OpbjBkzFVu3/YGo6CSjLf2RVgU20tY7GJZKjkaHF57CYyJhk9UsAe8h/HUa3Vn5Oqe9ew9gyrTXsHz5ajhkaLZESO4lb8Ee2xK8xUyJZeZIY88SVUadZRo8dD7FokN0fJSMIPyu650RhJaOGLGinjjtLsSJ2tLhhbZ4tv2jKF5czzmr+I2ucKq4AEirn3T1HToZS5d+onRYqgSadMGgKyorNQv16lUSKdkfN11Pby1PM/qtSLlFG08urN+8BT27DMDeA8eNBwf6Bj68ZXsWbFQdjlJHBnCXS1QCJ7p0eV4k0ANehDXTzR/WA6fcZcUBGWonTHwFK1Z8AZtTzqipJYJx8AgGixDdjVwx3twOO6rVrIB6tWuhcqUKiI2LUQ8IcnJsyMnOwV9/ncD2HTuwbcc+SceNmDiOZqERzVSBmJ7L4UCJYvEYM6oX7m5xK6LVPCLhr4MWDec9ac3dC99ZvgpWZ4RhdJEsoTVYZkYOalYrj/nzJ6Jh/RpGI5hE8UcYgvFbsOnbLWjf7lmkpEcgIko6jDdRKIXUmfx5Yd5IOBosztw0DBnSHY+2fUBUApE6pgTz11nyoJcHDR42Ge+//4XyGVB5N4ihYcblDxbkZuUiOtqC1q1uxx13NEOjBrVQrFgi4oSQ1Oet1ghlHLJzcf41NTUVv+/ci/Wiu3/yyef460gGYpXfQaC6MiH1ILcxV3zrTpXK5fHu0tmoVrmCnOFZxhGs3MFxXpGWxfJ4a1nVEpnho2Zi8dLlUmmcQeVTLBa8cGNRp6JvCy1o8x4+6eJmcHQv1NNaLKqvymeaRoWadSsHCfvow23htJQWISESRNLQOrJcVzBJS5gdiddpyVuR8tc2zJg5RXTYNoiK8n5K5ysPGm5RR8Q2V55WL3cdiKVvf4qYpERVcg0zTcZRsB70PfQas4u0SxOVqFXLZhjU90XUrF5FyEt/DDOeguTxxOWSzkaXx0OH/sTU6a/irSUfIzquuBKUbotDlU9D4lJlliNPRdLxM38Zx7PRv2979Oj+vJqS9FTuqRH3PJO0JmEpYbMwdto8tQgxLpreWv4bWkFJMGlOlyZHTk6OWnHwyqxRqF+/jlQT42atq9sKwJMu3xbjdLqw8cef8EK7Z5CamQCLlc4lmpQFVQFvAvGvUhdkGLdl/oXxE0aqaS0Nnwn7gF4O07XnUCx5fQWSypSUUOwsoTU08+NyuFAsIQL9B3XDv9q0EhvAu8MUHV+v+xZPP/UiMhwRiIlmXCQtyyNHnu6bP3+qmuRy6pF9+O//vkGNqhXlhJdwOAWcWugzAot2L5z9Oma/slg9OAj+aFZCUbq59O6FdnPV7Kg+XoQ14DMqNgKpYUeuPRtrN2xG726DcDw9TtSR/N5QBaHdoxm/DLXScBYxRGIjsjBq1CD14ECrDrzOv/5gxuHGkSPH0bP3CLz5+kdILlUaFIyhGEIadG+0o5JY7QsXTccTbe8XwpoEOzkwZLOm1wpxP8Cll9fkk2c5yfwacTJvPvIn0lBGNhciE8ti+LCJan5bV/6pU+48I6124J7+yhvKvTBWTWsVQUpIPardC4Wwgwd0wvXXXiUFZOWysgI0vGoIGRJtLqxb/y1GiA69e+8xRERyiYzROAJfMZhtxtucDhuSi0WhR4/O6tEsVVB2haDpC9Qswb7DGDFqGpYtW4XipUrmnQ8W1oQjN0c5rS98fTKuveYyOaMKpq6dLHTKDlStfAneWjATd99xo5RIRhVFXIL5K0wj1oloGUiIj8Hbb32CX379Xc6eHrqdnlhOE7hqdsyk2Zgxa4Hyh40qwpMuSjRufVm7dmX06dcRzZpxHlYaTEkB3xWbB2EcJcHGDT9izJjJ2Pr7LkTwrYciKfTyHKOBVFy+oKe1Spekt9aTQtgHpLHi5TwJY6bvLyxhwZ69BzB58jy8v/wLRMRHyWhr6sj6ejDYpezXX3cFpk0bifp1qsoZb1IFDx8I9LNgUcqUSsaAvi+h6U1XqaeKOlZ+Fo7fPMNOFy8G6Lz5b6ot/U8HzhlpdXOYhOC0Vjr6DZqMuXPfFrLp1x55S7l8kPOm0WNWD40u6rBDh3VXq2Yj1dRQ4co001MZ8Ip+w3c/GKtmDyIiRr+OXg/thPnXTE+nz4O6plt0yORE6HnYtm1QvHgxI+kgnUXyIt0F+0TCTp0yH8s//EKMPmlmsdR12vrwVQoNfcWWk4FmTa7G0MHdUK+OXqpD3da8fupgPKL6SL6qVamElzo8hQZ1a8Auo5rOp9lBPPCusbikeHy1Zj0O/XlEnzxFnDPS6mFTF81cNfvucrGU85bIeBqtEOSUtuK5TMWKzIxcaaxKmDN7FJrefI160qX0QB6F2o0nGIEn/bXrv0eXl3uoVbNR0aaENNPg/WYkmkB692/JIw9BtDUbvXp1weOP/cvwhzXzXChxA7yu76EOO3HyK3hv+eewucQyj9Bp6nQJ0sKMzwNNSvpRZOOWJtdhQP9OaNSwtmGlm8dphBEdXRCvvqox2j7SCknFEkTH1Z3XH3iJZTmWnoMNavO7U8c5I61uNL2RRv/hU/HOe58r6cp1/MGQRxoB9yXgqtlX505EAzG68tZ0qdrSX/NDSzEaXaxsWsb/fuIF/H3MgahIkbD+619BEUiRioaXBWlHD2PgwJ54tO2DKCaN6Evq5Aev87AgO9uGIcOmic63UvQ/rhguijrkgsOeiysvq4dBg3oIYeuq+jsbiImJQavWd+GyBpXgcmRLXgKny/5HP41PP19nnDk1nEPSch42G2Mnz8WypR+pR4Ch+MMSpuzho1k+6eKq2YYyLOabJfDNWAZWhLO4o7Dph5/Rrl17uCK4Q0u0qlweDOlLeGiVgN/44UbasUOYLjpku6cfk4bkLAMDqdBy+Ae9dp2iQ3ftNRSLX/8A0fGxxr5iujMEhs6Yy+lAjcrlMHXqKDRqYErYswOmVOmSCrjr7jtRvETxvFkvb7D+tG+EmgiEW8q7b8d+/H30uL7hFHDOSJtyPA0Tp8/H7HmL1cQ799bSQ14IkAqx59pQt15VTJo8GJfKsKj5TknFI3CxbDaHSNjN6Priy8i0izqgyEgnan1oZhbOi5k/l8suDXJc0h6Kp556RAtOQ3oGTpuEs+LE8VS82GkQlrz+MRLLJIMvZDbJWDjV/OCUHh+TVqlQBvMXTkedWjS6GFrN5qrvwcCpeW6IR681dp6iQucUuLnJTUiOS4Tb5YO1XnnRIoabUDuwf/9+ffIUcBZJy4zrCqLRNW32G5gmUjYmMlo97dJFM6vDC0rksUlYCdJnpcLp9MGXcgwZ2gVXXXmpuq5QKDgr0+uaHLkypH65bqMMqaOw75BN9F+urdLNbR6EdwcyjS7qsC67A8XE6OrXrwcef/QhuSppqFtZBk+YwmBeXDhw4DAGD52Ed95ZieKlkyUE0zbz6bMG8oEbc9SpURkLFs1AvdrV5YxRMEHh1M1rPOjL4BKj7yA++3wDXl+yAgsXLcN7H6xUb4bMyM6R63KfjkrAL171lw/6XK0a1VBFOo0llFkekSpZkve9ew/KD4b3FW9oOEtPxMzCGxtpjJmF2QuW6t0Lg+hhJAv5ws3gKADtuTlo3LgWBvZ/WbkX6gb3RxhdOfzHYZcSloQdN2Eatv7KVbN0D6Rk5b0Fw2vaqtDqi6QkEq5MiTh0eOEJZXQVS6Ivgb7XP8zqdWP33v2YMnkB3n3/c7iiRCdmZwmqDnhgz8nEDdddjgkTh6JWtSqBk1Xpsm7kJvlqd7rx1doNWLTgXaxZ/yNsWdyEzi6qkQV1a9XAAw+2wHPtHkHJYmJIkhJ50r9g3XqfByZNnSP5eQvWqMASmyG49PwFSaNPz2flF+PkwSsBC1IIodfYScMspF6EOHz0dMyZt0R5F4ViOGhLWvfkrLRs1K1bFQP6mYRlvAGg2MbUHXK4sXHz9xg5gv6wBmEDgg3O9OmtFQG3SPeSxWLx/HP/FqOrjTa6vGYgfIPXOa0F7Nl7SPTPhVjx4RqpdYkzr9GCg8WghG1y0zUYMaIvalarLGd1/vyDcWvCyeCApcs+QZ/ek/H5F5thiXAjXsoSXywJCfEJ2LPrICZPeQ2DR0xCpkhcT7aC57FO7drKuT0YGEtOVoaoBzv1iVPAWSCtrjzzHQeL3/oQ8fGJiAz5wYGuNC5CrFunAsaN7S+Nd62cNQkTuGK59EPtXvjjz2rnlx27/s4jrBnK4HY+8JymI1USJ+KicvDSi/+HJx5/EMlqAzdeZfUFqkJ2FSv+/PMIJk/lg4PVsLlE6nOWRK56prUCw5GdiVtuvhIDBnRB/bp0/JFwPo1W5smrI0n8fEvjkreXY/ToOTh06Chi4+Olz3jqnl5zUXGcF4/E6/OX45NPVxpx8whOj2QxxCIiQtSLxRZw2bONHyePs0Ba7cDdd/gkLFv+qZhJHBYjpcGMi0HhVsu8uWp2yZIZuPbKhtACmhXPI0ARVNtasHbd93jy0Sex7y87Ivj2b6oENLqoY5PUAclDX9RD6NOnK578979QvFhx47zZsIEQgbS0TIwcNRPLln0Gh0hm+qlqUgUnBbsbXfyuu+YqDBzQHY2NaS1NS19pm3FrOMRAemvZhxgp6tjRE8cQGSvXqJJ4rXhQdSB1wanxhIREzJ7/DrL5GtOgZdMoJuqElcsVQoKW+ja7V8c6CQSutZOAzj57Hg+3WjU7ZPRMLF36sfwUuaOmZrwfUXpg7l7IxuI/QrkXViuH+fMno4YMi1pK+KpQM02Bipofbqxd/52QrQNyHcmw0ujLk0Se9D3pUX/Vh54WsyDlr+0YP2EM2j3zuF7mrZLmR6CqYxo6L336j8Tixe9JZ+FrS818k3KFy2+CeeGK16ycdNSpVQbjxw9A40YkrKfc+UPzl6TJh/1qta9LGasfffoFRo+dhfSsXETSO0v0VBpj2kXTgPquy2yNisCebVtx/MQJdU6XoyCYc5Zdh1Mqnnd8QUATiv90HRK+0giM005a77lSvmiNq2YXvPYWYrg/rPxTWVa6YGHo5wJSGCELbQF7rl3t/MJ3zTaqx8eTjJuF9TSeB16VIIH5JsOvN32Lzl26wWmJkcgtEj/TZfxSbGUAeeLRkktfY6NwGseRk6H8YT2rZs37PeH8IS0tCx1e7ovFr3+M+JLJRkfwxKEbzh8phFpOB+pWlc66YCbq1q6mVQLVXHy0UrDhjPwYJx2iEny2Zh169R2JI3+nIlLKrjqlUWadtoG8uhAJLnl0Oq0yMvIFeQTv87o3H/T5EydSJa+hEs+F6CiX4Spp5FnBXxq+kb/spw0W6a0ZmPnqEsyYt9jYqiiEpKTy6A+rdy90okEDvWqWO79YzSddfqHj55quHEe2SNhvMLDvIPx5JFvChuJeyEM/5YLdjsQYp6TdBY8/bq6a5fVAeeB1dio3Dv95FP0HjcNbiz9BcqkSRmcMDU6Jx27PQfVLhLCL5qBW9SpyNpQIWH7prG4HVq3ZhK5dh4nQyEZMAiVv8PDKlVDSTkiIRpnSpYyzjNObXIWRISOpK88pPAhELYyMMteMmXkKHL8vnAHS6lWzk2a+jmnTFyEusijuhdqRULkXNqiOfr076r21VC5ZuAAFVJyKgN3mxnpRCUaNnihGV4pUUrBZAgkm0bLJOMo5HbkolRyp1nQ99tiDxooD5ipI+nIPJfSefQcxZtxMvPPuKvV+Lw2taoQCe1Y6rr6sNhYsnOo1D+sPvOa57hB9cflHq/Fcx95IOZqFOLWeLbR0CVtmFprd2gylVb4DlddTH79u/U00kuCkpY8Cd5KsUo0jpneZAqXjG6edtKmpWRg+bjqmz1ykJu4ji+IPK4XhVpM1a1bGgP4v4c7bbpQ4pEDG8BUwu3KbWnGwaYtYytPx67a9okdSBxWDi68qovHFm/yQh6fVqtkSkcpbi74ESUnm3gIMw7R9h9UQwnLV7NQF+OCDL2ARHVK7F+qroZDHnm1Tzi/jxw8XwmoJq+Wfr7BseEP6y/+cXBuWvvcRBgyeiFybE7HF9EYeWu0JjpxMG8qXTcbLHZ4xzgi8uVUIYqDyNVMbf9KTDcEgWY2PTkBt1RE9CDV/3jgl0uoyseJ05fFJV5+BE7Fw0fuIFyudhPOnv2pDjIehbwmyUnNQt84lIiV7qf1hdW3IUahcnsbSmZAPueeb735E//4jsHXbgTz3wrx71H06NR2hNCgbVQ616sHpRlJcBDp2aCcS9mG1kbBGkM5ilJ+rZqdMfQ3LP1gNu8swOFWaRl79gnVE98J0NGt6JQYO6CZ1kH8ncOY2P4w6VT3CDbvTibeXfYRRI+cgPS0XsdHaD4JXVTX7hY6ZO4GXLZuEceOHomHDuuqcQuGEFagV83P3nv3Yv/dwfsPOC6qu5b+uZxeSxJCtWpVzzCpn6p6TwSmR1mOJa/dCrppd/uEqREfwXbMc6nnNPPJDF1z+KkOAq2ZzUa+Bdn65+YbLlXuhapTCQQ1I2lIRmvwWtWX8c8+2w54DxxDJaa28gGYF6UoyZY/pKaYPOW/LRPfuHfDE40LY4iSsd3h/0GkfS0nFSJHu74lKYBOd0hIpzaUIZYZlqmZ8Hpid1ZGTg5tuuMpwL6xj6P86vHcsGozHOCTvnNdf9v7HmDBtHo4dTzV0f51+YMIyBguyhbDlyiRhwvjBuPP2m81kA8CM1IJPPluNP0+kiFbmm0a61OyU8lcOrgAuX668XPEkEDApPzgl0uoC6Eezg0ZNw9vvfCqVJmdCiFWvWNW6UKaoBDWqlcMrr0wQXba2NJpRFL8VqHVfGl385KrZxx56AKlZ8UJ20eOCNpbcoBpV65qc1ho5sjee/r9HRCWgPy1ViUBgZ9XqBlWS/gMnYNnSz4CISNVZg6VvgvlwiA7duEENjBzRXwhbD3rLzEBghfAeMValg6wQHXbQoMn4+88UWLlxY4ig/k0/jOLFYzB6eD9RxW6SugudDn/s3oe1X25EbpYdkT4NMV0JZlVEiGFSrUY5lCurlxGdCk6RtPpJ15hJc/H66x8g0iISNqSdXwxIiXKEsA3qVsGrr4xFw3o1EOFHncgHQ8Bz55cNm35C+2eehcNSUTqLl3uhXPdFHt3r+U0kgNuJnIx9mDl7qhC2bYhGl46U7oV85PlilwFYsngF4pOSpDo4rRYobH7QW6x6xRKYOXMcGtSrqTq8GX9h5D/PF3qs+nITevYbhawcJ6Kipe5DTJdwiP5epnQxjBveBy2b34KoEIwpE1ya9Omna/DTf3cJGWON+vQFnWe6KDrT7Lj33juNqcNTwymRlu6FU2Ytwuy5i/U7DoSw5pAXDJxk5srRevWqYsyYPrjy8gZGgVh5PAJkTS7xbSxrvtyMHt0GIiVD7lfSmWw2GK3y4ScvUstOpx0xEWmYNGUCnnziXzqY+mCYwNXCIe/IkRT07DVSuRcmKfdCFYG6Fkod8D27VcqXwRuL56p5WILSL6jRJeCDg1VfrEXnzoORJjqsNVJ3RK34BAfDlytXCgN6dcJ9rZuLsRw6DTiybNjwPd5680O1M7hVSQZd9kKQa9RWOIVZsnQMbr2liXHh1BBybnV16U+C7ziYMWcxpoiUjY3i/k86KjX0FoQqmG5OTQqPe+GgwZ1x3bVXylkjXL7g/OFpLA2XWK25+Hr9RowaNQl7Dx5XO7+oeVSmY6Sl4WlEpfvKT6oketueGPTo0R0P3tdSSzh1q5k/f9Bx7993WNKehnff/dxwL+R55lPn1UzdN6TsxqpZuhfWqmHOw+pQhVM3rilxJmGFNB+tXIPuXQfj+LEsxMbq0YF5CDytJhaICAWbdJYSyUno0ekZPNzmHv0GSglG08I3mL4uGwXNtt93Ydas1/HHrl3qTZHaptB59wVeyc7Mwd0tblcLI08HQiatTl4ffLHciHFzMJ27FyYkSE+lZGRvZ+EKgo3IcKwZfeRmO1BfGs1812xU3rSWvs0D/jBP6LRJ9vUbv8XYCZPw+469aljMazDz8IrEI/U0tbjMu0yJWP2Og0fvV68aUver2/LYWwCestO9cNLkuXrVbBzdJUU2Spoewpj3FoabpKF74fWXGqtmtYTVaXq6dH6YdaqdX95690P06DsaR47bEJcYlZe24o6fdBmWV2w2G0qUiEefXi+g7SP3izqkCavvKAzdbuYB7NqzHyNGTcaXa39EVDw34dOd1HdogeTLKSqYyHY8/dQTRjQ6rlNBiKRlT2YGLcjKtqH/gAnqXbN8k3Zw90LqeXqbIBWeRlf1ChgyiLsX8qUcnkrxCUUGVp9d/eSarqFDxuntNqPpbeWnwhR0gzNttQM3V80mWdHhhX+rZd7qHQdBdWjdMMzhvn1/YuqUBfjgw9VihllEHQqUdmHYs7PUPOzQwT1Rrw7nK4OlTeh647TUG2++j3ETXhWhkY3YxNDnv1mFfMldmVKJGDeiLx4TwnreCukfmuo8LNJZD6Nb125Y89UmtbNicEii0pNy0tPw8CMtRUjV1FHx/CmiCE7gbDgLxk+ajSnTFktIIWOIlNcZ1ZvB1a9bEVOmDMdVosPq18/zYAX6KYzKnXxIBXDVbKeXB+LvY2mIMF6VyVB6iYz5ywMOXea0Fm/gEhmuOPAsQmQghglUED5YtSodlioBJazqvnmGSyjEky6Xk6uWeQ/o30XPkOR19oLlVgURGOflp11UgrffXYExY+fgeEoW9LvnQtuflrGR8OXLJGHc6AFofkczPTtTMFm/cIuEPYBn23fFr7//IYKCj2HNPAaGw+VQa8O+3/ABqlThtkinByHTjqX8/of/4J23P1ZPWkTMGOdDA/1h69erqFbNXn1FfWNaiw1PiREgLqWrAlv+u0MMpo74KzVTCEsd1qEO5TegpLHvOHT16kWIgwb1wVP/bqtXHKgrLH6gKuA9EcjOzsXQYVPw1tufwSG3c5m3B8GrkC/Vu+bKhhg6tKeehxXC0uAKxeiyif797vufYNS42TiSckJXF+Fzmqkw+NSqXJniGD96MO667WY9OuioQ8KuvQfRvl13/LbzkKgTSVoI+Knr/JDRQdTIbp3boVIl7pp4+lAE0gKrPl+LP0+cgIVzkf4kjKHnsGBm4bKzckV/q4Q5s7hqtro29I1rHhSsSf7Wc6HUIx9v+6RY6PGwssH5WNaAkqZe/xhOT2tRstIBBkLYw0qHpHthbBwJz/tY9IJ58AbLwffEOtG911C88fpyGRb50ESnGUzC6rwIacToql6lLCZMGiajTA0J7y9NM05eJyGZtkuG428wYPB4HP0zVU3JcX8s1r3SqnxC14cyuhx2FCsei2GDu+KuO27SU3qS/8ACmnVLowtS7wfQsUNvbN2xR80fK9nA+lV5LQidLhMgsbNkZLn8mkvxhNgN+hUBjNdvpouEgNn3BrWIg/t+gz1LJJ3KmDqrrnngVRwpIT0BKWUubVwD48cPRMP6tVSl60YpCF+NacGBQ3/juef64USGVDjJZqoCHPLV0E/NS6fLavNAjAAXh9AMz6pZlTmzyL7Sy4+U4+l5q2Y5rVXY6NLELgiTsA6nHbWqlMSCBdNQrzZXzfK8PpiLwpUvGWQeJUqnk+6FG/D8i71xIiUXMXFicBppm2UuDNaAluLsbKXEWh/UpzPuu+cu9UjdhP9G18KAe9X+vmMnevcehi0/b0dkVLSRHp9AFi6vAgWFKpvkQuq9eGwUur/UDuXLeW9hz7C+8l00+M9/AXCqxemSwThvxzyzAbzBCiWRTPdCB+rXr4GhYnTdeN0Vhg4bKiw4LqSZPm0hft95QCSsXtjIKAqmqsF88dBP2tySdrKorf36ceeXB/U15TTDe/yB17REOHDwLwweNgnvLtPuhb7T9A1azDZbNupUuwQLFr2ija6gpgNTkOaQxrc5tXvh88/3RmaOA7FJ1AlCqTtNWLt0lrKiEvTt/pyMUPeLwUwhEawEOn7uTfv79j0YOXKiGL0bERUb2mM2zjGrv5L32BgHOnV6As2aXS9t7k0x5qEoNekbIZLWLQW3onKVarBGx6r6N6VJYegoaXjUr1sNvXq+gBtvuFruNskSSqbdyM614eNPVuOjj9eorTu9nTJ8pa2HbHYaqXi+lKNELF5++VlldOl3uOrrgdOntLCqYXH8xFew/L3VYqVzhkJCGRIuFNiy03H9NY0wd+5kw72Q+VN/fID5Msuml6O8v2IlXhKDMyfLJQTQBmco4MIFPpotVTIRvbs+r6e18raODwUW7Ny1DyNGTceq1d8hOq4oj1w5sjoRHenCI/+6F48+0kZsB72nhKd8pwdFKJEbzZs3R4UyJf1szmDCjcysbNSoWREDB3cy3AuZjPcRCLqQu3bvxVvvfIhjacelo4iEV0txqBpIeJ8MoB4nDSc9vUTxGLzw/JNScZwlIOkYJ8Mwbb/sEXC7zYOYKtL9gxVroPZnFuVRJ8ePQGE17Nl2tQHeyBF9jY00ZEhVV3yF5RXWpb7D7nDh7Xc+wtDh05CawWktvtiOCJ4ukSsdvVixGAwf2E0RJ5p6qHEtOCzYs+9P9O07SmyXDYiJTRC+BasvDyxS+S67G/e0vENGiP9D+fLmO3PNg2BuQs+RPwRjkAHdYJc2biBEaA2X7ZikbRZGZ8Q0fjLFuq9WVQyPiQPRTL32yByazCMQWDjO5eZi9eq1+OnHrUqfyitsXnm1sq8hJyVd070wVq2afVpUgjZqpagOxHT9F5VbxjPtw1w1O4UPDlbBJlKDBqce1qmt5SXuA5xEd4tkTEXTJpehf/+uMspQf9dlLhySZ3RZ9UMVtxDWiUWL38WkKa+JWpSpDEZlTEq8Slj5BePX3lolkmMxeexg3H9v87wnXf7AMUXnQUe+S0aXZ9t3w9cbfkBMvF4Lp0evwonr87zFk0DmiTS0aH4TevboiCqVOb3FaywbD343f3vCnCyKuFmHS60uXbjoTdEV+4meWRXxxcWil3xwy3V79hE0v/sOjB03EFWrVIbaDM4kV0h5pT4ZgZ079+COux6DTYLrhYwFs6iHam+jgCTOyTgmjT4MD97XAgkJ9NYKFQ4pV7ZaIsMVB3TgppUfijrAhmPu7KLDUiWghCVhA3trMYRBWjHl+X5bPukaM242jqdkqhmKUEF1JseWqxy4x43sr2cJlEoQLO/a6CKR1LTWM0/jt50ZOt/BgrLepb6V7SDf044dw30P3oXJ4wahdGkKitNDTn8oMmlZTVTWf9uxB0sWL8P6jd+rfaFq166GB+6/D3fefiMSE+Mk26wUZrwILaDidmPu/LdEFx6BpJJcq8Q4CmZRS3Vt9FlVxR3/cydmzJiiZgnoaKZ16ECVp8tizmRwESLXdHGJDFcc6CRDqXj6AziU0UUdliqBErBBw2riqlWzK79G3wHjkCoCweNLGwqEsHautojHhNED0eKuZogMSYfVaTMdqgTPtn8Jv2zfL4QNzehSEtYQRmkpx3HvA7fhtXkT1ah6cu1eNBSRtLzVPHRjm7+YTV3VJhmIImZegmbkisS6qRWOyhDpb6mOK4IPUYW0ThlCOSynZ4q1+m8MFl0uf/r+CKBzzWGVI4da5v36x2qWQF31Myz6At0Lq1YormcJlNGlyeA7XS/IbZSwa9Zuxosd++PE8Sytw6rOGCSsgPOwTodDJFsxDOrzEh584B5EsbeGWN18i/jOXQdkxByDDZu2IEKMVS5uDA3S9iJc7NnZaNmqGSZPHGS8H41lJ4rY7kVEEWM2G4PBWEA90W0+39GZlmvqaQ2PIkYvt3/33Y/Y88du6fW+CatA1UCt77coB/JW990qulQHfU3li3nU1/2BhOXOL/0HjMdbS0TClhEJKxJbE9YsZ2A4ZISpeklZL8IyXl0bhcF4KYU0MUjYz9dswsud+uN4RiZikrimK7R0CZekzaG4T9fnRR0SwhZBp1DzsNt3Y+iwSVi34SdERdNxPrR0Cc4SQEjfWup92NBu+q2MKvxJtnsRcRKxmxXLg8ELHLpNTgoM+sYb7yMytqT84LBvns0PqgR8kwxX7datVhldOz2LuFgxHvRV4yAYtmB4diw3uHvfmHGz1GZwiSWKSQitcvCakuLqXv+w52ThikvrYsFCz+6F2rjxpO6BkQ+DGPQleG/FZ3ixcz8cO0L3QjoTGOkGJA/v4LSWHSUlz11faoe2DxvTWgzGJvAJhtLlpjDdvnMXRo2egNVffI3oOO04r4ruC3kXmICIJiE8u2XLFk3Ru1dHVK7IR7SGfuwvjtMMv8U8aeiynRS4MHLlpysRFxcjpGQkJJK+5g0SlrovhfHTz7RRCwG1pa6uylEwkNlouuHU7oVchLicq2aFCMaQbBJG089XC+jrNiFssyZXqZ1f9KpZgpqe0vaMu7wh6aroRAfNtWOZGF29ZFjOznEV2b1QOb+UKyGqUCc89QSXuBuE9QuG8hx79h3AoEGjsWr1BiEst9onfD/p8tQB8ybpCOMtTifuadkM3Xs8h9o1WXZe46Nx9fWs4PST9hTA1/aknsgx5nW1tPNVD6xKpzTeZY3r4eabrxUp628C3gztabQDB/5W221+8MEaGaKlAopiqkt4Ww7fcXAtBvTvjgb1ahnng4HEonuhDW8uXYFRY+YofwyuOAgNJmFtahEiZwna3N/SeNIVChjagl17D6FDh95Yu2GLEFbr74HALmgau0RORjZaGBK2Tq0qEqsWAmcb5xVp16/7BohMkmqQiqDYYX34qBM2ocuVg0sb1kK1qpXkjJ8bFfQ1DmrHT6Rj0pRXRSVYBTuHOekculGCiQgdN1cc3HTD5ULYzsq9MLDzi1d+JH7uD/veB59i4uTXcOxoutf8cygQY5MO3MlxGDdqQJEXIbKZd+3htFZ3/OeXPxAVdJtTDZJWiw43UlNScE/rZhg2rBeqS50rQqtr6sazivOKtL9u24FEbrMt0EMTa6NwjdidDiSXLYOrrrkciSHOx1KdeP+Dz7Do9TfhiorI516YV/l+IZa66JGN1KrZfnmrZrX56Sss8+6RQty98H3RYfsNnoQjx/iEj5KXl0OTlHQvLFk8AZPHDMHdtzXR01rBspwHeskdwrPtX8a2P/apzqI6asgRuISwx3GvGF2zZ4zEJeXMaUjT6Ao5I6cN5wFpdcNmZNuw/fcDiFXvXg0CB1CldHnUrWVOMQWTWBFqB5ZOXccgKr40uAO31uG0HqeliX9wTVrViuUwfYa5apbp+UuT51mtjNOlHI04S9CjxwhknMhFZIyUz8u1MhD0mi4nSovRNXp4T7Ro3kwsfU10nXN/YB6kjKKDcql3l86d8cv23TKKebZYLayzy28vvZakpnNUTkYW7n/gDrwyeyxi47g0ScCg+YIXjOvM4jwhLV9ckYNjf/0ttRVKBTiRXCIepcqUMX4T/oini7j52y2wODLVsJpfJfCQNz/08Odw5KB2lfJYvGSG15ouTUp+5q9A5l3ioonOZdMi3TkP26XbQGRlOhGXEAWrS8IpP1/9iNYXmC6nzuheWL5CKbXz+X2t75a8e8rov+HYIVzKyt+2fRcGDByPb77bqxy4mZ6e1vPRaSRq+m6orzICMDw95R566C6MHdsfCfQlVuWTlHmfJyuCfD/OOPyX/SyD79Ryu3OlWkIhrRtxUomJCd66WeBwf/91VD75rlv9Oxg4o2ATHbZhnap4Y/EsvWrWD8nyQxKQsJyH/XTVBvXg4NiJTMO9MBRolcPmsKFkyST07NweD7dpFaK3lu58dAvlos/Ro2di9RcbEKmm1IJAwrAzmYSlk3mre25R89/ly5q7KJ4fOA9Iq1nEV927DSs1OJwiOdyIVu/uCg0JCRzaQhuWCXt2Bm68/jJMmzYONatz/ylpRZ+EJ5FNMvMGa96q2S5dh+gnXX5nNwqDnSXHnoukpBj06f4c2v7r3iK4FzJ9i1rTNXz4ZKxatR6xCYmiDoUWniMQVQqLy4nmd9+MHt2fV2XXD47UHcbfc4vzgLQa3O0lFDmWB5FkRQlQrz43VssOKYzevfAGDB3cHfXrmg8OTEu6IBghG1VHTPfCRYvfU84vqaIPavdCTaZQkJtlQ7nSxfWq2YcfUIQNdXRgGlw127VrN3zx1WZEiw6qp6tCi4Adxp6dg+bNb0KvXi+gjnpowrCM47yhyrnOickgi0ijOJEIdBEMBRGw2/mKJfP+QA2jCVWtcnncd29rZKenq9881BMwpeMxrGiSwg4+6Wpy82Xo368TGjaok+dxZebUA56RuKkIKmLorS/ffPsDzJy9WHlrxRibWSi6+2Ee9Vd+0uhSm8GVK4bxowfgAdFhgxFWq1KeDkMJ275dZ3z34w5EmUaTuuYj9yy7QGvuTISLP1PQslVTDB7UDbVqUn/nPTp/+iAKx3W2cQ5Jm78yuWkG9+IKBW4Z7nJy7MrZPH+F+oNLbZ8/YEBn1K5eRYjLPRT0Xgxu9VfyIf+56vbKyxtiyJCeaKTecUBLXXcI391CAnGuVphFK//9D1dizPjZOHz4qCK7fsrFw7jXB0g80ppvT+Sq2XFjBynHefP9CoFKp4dtHS/9Ydu366ZWzXI/CJZJG128pzDYkRQkf/yWduw4Hm7bUjm/VK7EdV0864se/nJz9nAOSZsf3McrqXQZqZLglcJGTk+3qdd1BgeLqKeJ6tatKVJwDK64vApS//4LOVl2OGxuiScTmcf/xJ23X4vXF0w3JGywqmE+eY8TTrdDhuNv0H/QRPwteYqIDr1hOUtAo6t4sVgMEwnX/PYmiFYb4QWDJh2Nrt17D6pVs//d9od6YBISxOCi0cVyZB5Px3333YlZM8YguXhoDx7OJYromng6wWR5sIF1Iz/ctgO+2rAFMZzLDADqjWVLl8Do4d3QquXtxtlQoNNLTU3Fpm9/wjfffIeU4yfE2KiG666/Fjdcd4W+TSSY7jzBycdl3mrV7PO99ZquoroXOp1qloBGl9JhSbrgQQV8KujE9p17MGjQOHwt9RYZG+t3Gq0gOMpwHpaPw1u2aIKxY/qhjHLgNsFMhNgBzjLOK9L2HjgOc+e+h/iEwLMCek8sG17s8Dj69ujgRfKCrc2h0RN/XpqKUMY5jt0mwdRQynvYWGYYb/Aa75HrEoYbaaz5ejM6du6rdi/kIkRGpYnjK3x+2G0OlLuktJrWMmcJGD54SMmFi+6F9NYaj89Xb0Q0PeME/tSBgpDgiBDSNm9+s+jvL6NalUq6eITKQCi5ODc4x12JFeOpnJtvvA7ZaSlG3QWuNM42/PzzL9i733xBsEk474Mw/5rwR0gTgQhL8JpY2SIh31u+Ei+91F8krBtxnAtVRpd5jz/oa+rRbIkk9O7qmdYy+45v5C+XWjU7cgZWfv6NGF3JRrQFy2rAMLrMtLkwlYRt2aKZmodVhFVhed08zl+cQ9IWrpzLL2sgn3pGQA+v/irPJcZGFH7c8is2b/5REcA8n/9geO8iGvGZUauf8pH3PRBhJT7+kXxRPeFLOYaNmY601FxtNMl5j9HlD9ro4SxBqVIJGD60Gx5+qFWee2FeNgpBJSwHywTs2XdIrZpdqdwLTV8NGl0+Elfn2JmYN+1z4BQJ37x5E3Tv/mzeq/fVDIj/DJxXOIekLYwK5Uqh6a3Xqy11AkoducjNOziDsGTp+zh0+G85yaKYx+muecbHRqWEdWHxWyswZswcpBxLRXQijRkfZCkETVjTW2vC6EF61WzIDw4Ymu6FB9Warg3f/IRY+h0He3CgOpLkUU3LWZBxIlM5cPfr9xJqK/fC0B+4nC8ItcbOCugX8Pzzz8CeYc4K+CaDkhfSGBExIm2//xULFi5Fbq5IWzVnSoKdLtJ6p2+BQ9r3bZGwk6a9hpSUDERERsnZUAhLcB5X+8NOGT8Ed9/RBJFqfjhUcNXsIbVq9pffDyIqJi6Aa2QBqDqhe+ERtLqvmXS4fqguKoGSviYFTleVnQWcQ0PMF5xqw+VSZa9ActmSqh71BHr+GmVVK5dAZXS4kHEsBa/Om4BH2rTSI6jywlJf1N0nB4ZnPHq6TK+aXaM2NE5Py0aUqCc6Z5ITRYrAUEtkShYTCTsALe4UwppTaiGKDaoEz7bvIoTdK51FvwwlNKNL540PDjgPO3vmGL2JdagJn4c4z3JuUbpq127PID0lXQRnYcIS2tzhNcKCYiXLoP3T7fHpqq/VToHBwbDeR2BwW6ZVa9aib+/hOHE0S7kHmp5SXPoTCJzW4p5mZUoUx7ABnTVhOa0l/wPvXqjzxlkCTmt17z4YP//2hxCW/rD6jsLwlIcdm3CLwWXPykGbh1pgwtiBakrNTd9Oz60G/EZ63uG8Iy33bm3T5m6RSi44HVrOFgblLOdCJYRIOd5VvGwNPP1UJyyT4fvECb6Q2Cwar9JMYSj93dNinkNf1780tDRKS8/A8o+/QLeeI3EkzabcC5mm6V6o4/MHq1rmXapcspCuPR68v0U+B25fla/jY4ege6FTTWsNHToFX63fIvovF2/KHSJhfUpZiVcbY+qLhJfvkn7re29Rq2b1Mm9ejdZ5MPKhke/HeY2IIQLj+3kANoQF8XHxOJHqwLff/RfR6u2DoUAIHxWFtV+vhU2s4zJly6B48WLKsjfbRysVJDnpos+YV/U1z5QV3+S98489eG3+QvQfOlN+8+3ZoeeFaeTabWr3Qi7zfrwtFyFqVSMQGJLgk67tO3dj1Kjx+Gz1esTEU4cNLmOkFqRT6YWfkRIXvbXo/FK9WsW8spHQxo8LEueZTqtlHRvshx+3olu3Ydixe69SGYJDN6jLaQf3wL3iikZ4sPXtuP2OZmqZs25wgxAqHUJT1rsFnXLpwIHDWPXlBnz2yZfYuOErRMXT2dwMH7y6yAmuui1dMgHDBnbV+xJ4SdjA0PHz0Sz3h127bhOi1CLEUJtJOoYQ1u20oXXr29C1S3v1yifOEmijK3jHOd9xXpFWZ4TSzqWcwhe+8Q4mTZmPzBy78k0IDPO6NA8fT4rhk1wiCTWrVEXTZtfg1mY3omb16iiWnKDmRXm3lrpAdq4DOdlZ+N//tmHtpu/xzaaf8MeuvUg9nqGWx5jSOFTicB6We2uNGd5HJF0zz0YawYpggM4v9CXghsbRMXEqnKej+YdZnpx0LpG5TXmqcRFifoSYifMY5xVp2Sy6eanTWfDXkePo2X8cPl35lQzNYjEr4so1xR//lW9ecvJZJYf1+FgkRMQgId4lRK6IunUrIiFR9ENrBE4cT8Peg38j5c+9SMtwI81mU/vbcuM7i1VooGonlIYmYbR7YnJyLKZMGIbmnNai0SVgNP5jYcl5VTtw01uLW8ZHSZnVYwHqzoWsL/nNIFJYTVZ9Pe1YqlrTxWmtCuVKqyuFtefAuTnfcZ6pB/nBnP308y94sWNHIVaumurRpJULQax2b6gC0ihh00ojUxKbm3uw+NGRkcroUQ3J/0WaP2W8pIZ+1yzftD15/CDcw0WIIe3AzXQJ7cBNf1i6Fwb31tJEVk+55OD3tGMn1KrZV2ePRXy8GFuq90o8RSnOBYDzmrQmvhT9smPHbki1yVBNCSjnKH3OB1DK0YTjlvHcgZsbGvNJl/ciRP9gGVyqI1HCcsUBHbj1+9FCAaWwEFbqIiczU+1LwGXeXDV7NnYvPFe4IEp02203Y/CQvoi3ONTQXWikPIdwSmacImHLiQ7bv2dH3Nc6/0s5AoPzsG5s274bAweOw+bv9whhza2KgoNTb2rVrDNX6bCjR0kdxXHVrCm9L06c96TV/HTj0bb3Y/SYAahcvgwcubnq7PkAR5YNFUono0/XZ/Gw8tby6JfBQAnLVbOjRs/A6jWbERMTLydDH8up5pCgnCWg0UUdNk8luEilLHHeqwfaRNEzCpyuWb1mEyZOnI4f/7MVUTFJXs/fTWPmTINp8HAhN/M46tVtiJ492uHeVnezNg26UmnwBe+qtqiNNLgvwedfrEdsfIJQTE9H+X5wIGG9CM0nXTQyWzRvgp49O6CusXNjnrfWRYwLQqfVYDbptOLEf37+FbNfWYSVKzcp+yoimtNS5oODMw2uNnDDlpWBNg/ejvbt/41rr75MnQ8M5sw8+AadQ2rnF7WRBjc0VsYfDx8lUPoQjS4htTK6nLBnZaP1vbeptwfVUTvtmOEvflxApPWAetyffx3FihWrMGv2Iuz9+yiSRFLxaRD9FTR12cgn34iqUlRwHRu/ctfv3Kw0tXHHE489IqRtiYqXcBFgKOlQeuqYuBkc99b69ffdIRtdSnZTigq4t1abh+7E0KE9ULliebnCuE2V4OLHBUlaPU1kUe6I2//Yh3kLFuH11xbDHl0SyYlxmnC841RIq6QbacYHEfQ+s8HitOHBh1vi5ReeQa2aVRGbt8wnlKdMjM9tuBd2V5vBcW+t0NZ06VkCgrsX3vfA7Zg+ZViBLePDpD3PwSzrxtKksuCH//yCmTNfwXtLPxLpVUq9dUcUv5NvR4PwqVlZiMw9ijta3I2+vTrhyssaSZym1CRCIwuzwg2NO3Toi//8slMMNi6A5BWTdIGg4+drj7hV//y5ExEV8O05FzcuTPVADo9xJlDGh57+2bp9N5a+8xE+/fgrpB5Lg1Pali+Fc7sdcqNvgvGMNqHEGhfDzopoREdEIjEhBg8+1AIPtmmBxg1qe3hqkJZ7JvCUloG+wKs6X9wyftCgUVjLdxyIAWlKTp+bwRUA13Q5bU614mDMmL4oWzpZYnZINgp6a+n0LnZcoJI2ONLS07Ft2078+ut2fP75ZqSnH0JGhlUI7FQO3Xa7EFkaODpSKBoTi6hoK+LjXKhUsSyuuvoaNL6sIa64tAHi4sx3OYQO0tnsUJyH5btm+Y6DVavXB92BWz3lIvnUvgR8eudEpMTVvHlT9O37klpxoIj5z+CnT1y0pNXQReNnRmY2jhw5hvS0dGRn5yBLrH/Sg26QicWSkBAfj1Ili6OY2tSZV/KJsCJCS2KG375zH4YOm4jVX5CwehFiKOBMASUs9elW9zRDd24GV0MvkVE6dJi0Fyu8ixZKC5v3m4w4WVboePbsO4wePYZh3YYfhbChv1hOdRmRstwuv1VrbrfJaa2qcv7icS88FVzkpD13oHvh8892wv+2HkRkTIyif1HcCzOPp+GBB+8UPbizsS+BN/6hItbAP0TS8m+oxTQl7MkQg2lwmfcBtWp2664TiIiIVbt/83xho0vu56UCU3N0L7zvvtswceJglCldgiHlHsPcy7tVp/VPRFjSnjZoKco31zz5VGds+WUbrJFBNpKzuNSqd6tLL5EhqfWq2XvUZnD69RO+Zzz+yfA/WxNGEaD7/fHUDIydNAv/+W0HLKHMowpR9Zbx2r3QnmlDm4daqlWzkSG/I+yfhzBpTxl6poCLKVesWIl3l62E0+5xMg8GEpbzuHBy1WwzDBvSXW23ebG7F54KwqQ9VVDIik76x+79WPbep2qj59AWYmqQsHwjGbfb7NO7IypXKi9nSXjvIwxvhEl7ytA+EOvWfYvvv/8FEbGBprZM48k45KfbaVfbbfbo8bzyZ9Bgs5hHGAURrpVThcWN9IwMrN/4HRyil/rbXotPusxJAs7B8ntOZhbuvfdW9BYJW6c233FgkDmMgAiT9pThRsrxFHz15Uq1iyGhZ1rzg05jJh3p5J1+NAX3tLoFQwZ3R83q5v6wYYSCMGlPEXz3GfXZjPQIvSGIX0EpF6gOCGE5rdXinhsxa8ZIlC+rd/AOI3SESXsacCI1Qz4DVyXlKDejy8zOxX1tmuO1edMQp16bxHA8OMUVVg1CQZi0pwjOr6akcD9dvTGdcpz1CwvixVB7vv0TiONLPTitlbenromwmhAMYdKeBpgbEweTk7weLdLWaXcIwZWuoE8aAUlXOsuEERhh0p4i+BAhOZnLXuzCQaFdgIcKJGVWVi5mzp6Pvfv+kl9S/QwjV7QTOo8wgiFM2tMA/f6ttMCUU0LVrVwU1677Fl27dcG+g3wzOkPRb5aHui2MIAiT9hTBbUUrV7oEJctUgJP7gQkHfQ3xSh1QBLUgOiYRm7/bgWeeflmtzA1TtWgIk/Y0oHTpUmjapAlsmf63zs9nawlJo6IT8fPW3WjfrrtaoauaIv9NYfhBmLSnjAgUS0rCLTddI9I0Uw/2Sk/ND84sqNkFucPcfj4mNgK/7tyLjh36q02UtZM4ZxRUEAXtjhOGN8KkPWWInhodgZubXYebmzaDLcuOiJBZZkFkVCS2/PyL2vV7+449cPHtIertPOYRRkGESXta4EbVqpXQ5v67UTI5Di4nl6sHh1YGRMeNjVfb1I8aPQU7du7TropKxnKDufAkWEGcZy8KuRChPQ0irRZUqlQBObmZ+OV/v6kX5QX3qZWQokpwXVhEZDy2/b4Thw8dQaPG9dXKYA3GEaatN8KS9jRAy0KLItrTTz+O5s1vgcvmlPOakPznE0JYqrl6fpfTYfH47PO16NdvNPYfTJEb2DxhwhZEmLSnAZpWmrh8k07vni+iRYsmyDyRrglNI8y4Kx/kvFWzVhGciIqPxbpvtqBduy7Yu98zjxuGB+GFjWcIR4+moGuvYVjx/moUK1VKzrCaQ6tqSl6Xw4HGdUtiyZtvoUypZONKGERY0p4RuFG6dEksmDtRvY827dgxCtOQoLZFkpsjIiLx029H8XzXgcixhWbY/VMQJu0ZASWqE5EREZg4dhDaPtYKjsws5REWDHoul4hAtCUKe7fuwnebfzDOhUGESXtGQOLxcKJ4sSQM6t8F9957ByxOvhgkVP1UJK6Q/lhGJn7Y8gtcYS0uD2HSnhGQsKxaOeRrJRpnvTqgZYub1VnylhvMmdt9+oJaU2Z1w5brxOG/02B3hI0xE2HSnlGYQz1Qq2Y19OjeAa1b3iIS1yFyVE93+YOeRnMjMtKCYomx6u3sYWiEa+Kswa1W3FLitm59K3Iy05U0LQzPOZfThcTYaDSoV009vAhDI0zaswoXqlWthKGDu+OeVreqFbmBYHE5UemSJNx803XGmTCI8DztWQOr2dBLRZfNysnBcy/0xooPViOhZHGRpPpt5+odYqI38NX7JRPSsOStpbj6isYhb7P0T0CYtOcQNpsNEyfOxpQpr8GGaLgipEGEnJF2G0pVLIt3l8xC4wa15E42UXhQNBEm7TkGX+a3a/d+bNiwGXv370d8fDyuuvJyXH/9tUiM455gZvOEJa2JMGnPKVj1QkY2geKkSUzzvP6lEOZsHsJjzjmF4SijZhG8GWr8JlHNI4w8hCXtOQZNM+2Ry7+anb4aJMxbD8KS9hxDkzG/OC1I0DBh8yMsacO44BCWtGFccAiTNowLDmHShnHBIUzaMC4wAP8PVYPtpLFDeMYAAAAASUVORK5CYII=;" vertex="1" parent="-JbPtTbqDn5eovDhBWH9-23">
          <mxGeometry x="119" y="2" width="19" height="18.89" as="geometry" />
        </mxCell>
        <mxCell id="-JbPtTbqDn5eovDhBWH9-25" value="" style="shape=image;verticalLabelPosition=bottom;labelBackgroundColor=default;verticalAlign=top;aspect=fixed;imageAspect=0;image=data:image/png,iVBORw0KGgoAAAANSUhEUgAAARcAAABoCAYAAADb0LR0AAAAAXNSR0IArs4c6QAAAARnQU1BAACxjwv8YQUAAAAJcEhZcwAADsMAAA7DAcdvqGQAACYfSURBVHhe7Z0FnJRVF4cPXdIdggEqKiCioKCoWCBhIQgYpCgGUoIiCoogpaQIKhKiKCJgU4I0gkWJhIrS3R3fec7MO8wus7uz7L4sft7n9xuWnZl95743/vecc8+9k+qkIg6Hw5HMpA7+dDgcjmTFiYvD4fAFJy4Oh8MXnLg4HA5fcOLicDh8wYmLw+HwBScuDofDF5y4OBwOX3Di4nA4fMGJi8Ph8AUnLg6HwxecuDgcDl9w4uJwOHzBiYvD4fAFJy4Oh8MXnLg4HA5fcOLicDh8wYmLw+HwBScuDofDF5y4OBwOX3Di4nA4fMGJi8Ph8AUnLg6HwxecuDgcDl9w4uJwOHzBiYvD4fAFJy4Oh8MXnLg4HA5fSPYvoj9x4oRwyRNc9t/0HfepUtmP1PozVerUwm+pgs85HI7Ek2Rx4c+Pq6AgKgcOHpR/Nm6UVX/9Jes3b5Zde/bIsePHeVfgzecsqSRtmjSSI1s2Ob9gQSlerJgUzp9fsmTOLGkQmlSpJXVqJzQOR2I4Y3EJGCYnZOOWLTJx2jSZsWC+LFu1Snbv3Rd8B/yLLBfjlIDkyJ5NrixRQm6pcJ1Uu+kmKVKggImMM2Ycjug4I3E5duyY/Lpihbw/bpxMmT1bDh4+ZBbMGerUOQtuUWoVFCyY2ypVlEfuvU/KliwpadTKcTgc8ZMoccH9Wb9pswwYNVImTpksh48c1edwe/6/MZFR9yhzpkxSs0oVebLBQ1K0UCF73uFwRCZqcTl46JC6Pguk4xt9ZOfu3XJUrZf/GogJsZm8uXPLq8+2klsrVrTfHQ7H6UQlLrv37pWRE8bLWx98IPsPHrTg7X8ZrJjzMmeRx+vXl6Z16kjmjBmDrzgcDo8ExWXnnj3Sf8RwGT3xCzlw6EDw2YThssz03s//N7inTCoqD1StJh1btLD/OzfJ4ThFvOKyZ98+6Td8uIyaOMGWmaOBAXZB4fOlwd21pNwVV5gL9e2smepS/SA7du2SY8f/f9wp7jVjhgzyyD33SvvHHpN06dNJqrAVJ4fjv0yc4nLw0GEZOf4z6adWCyITLRXKXCW9O3SQAnnzSvp06cyFOnjksGzeus2uNXnWLLWADgXfnfKwGpQ5U0bJlEEtj9Sp5OjRY7L/0EH9eTSq1S8EhkBv+8eaS8P77jOXKTlhZY7cIUtKVIjxFMqXT9Jp3TqSBu17+MgR2X/ggMUUiSOSQEm/xdWlXdOlTRuvRcrfb92xw34CeVH5te9n0knnXIBec+TIUR3De62M2c47T7JmyWKv+W1pRxQXVoXm/PijtOnWTTZt3aoFTHiQAQ0xomcvqVSu3GnLtXzM1p07pWOfPjJ1zuwUDwgHLKwi0qBWLSl7xeWSK3sOKzMW2t8bNsj4KVNk9qKFsk87XkIiw7Vy5cgh73R9Ta4tXTrZGo1Pxdqr0ayZHDka6LzZs2aViW8PCXUQR+JBsLds325tvOCXX2TTtu3azvu0jo+qOKSR9OnT2yAskj+/Be2rXHed5MyePWIKAsJSr1UrtdB32e8I07vdussVJUrY7ynN3v37ZcyXX8pH+jiok+ZF5xeVrlreC4oUSRlxoeKf7NxZflj8qxy3DNuESZs2nTR94AFp3aSxqn6m4LMxYfZdvnKVPP5yJ/lr3brgs2eftGnSyt233yZP1G9gApMBd8araK0Nltex1qbNnydvDhsWsBwSCGJjseAGjujVW7Jqx0yOZqNptqkgX1e7ts46h+05Ovmsj8ZYNrEjcdCGJHmOmjBeJk6dopPIRjmk9RrX5IEVkjlTZil58cXSSNuAhMrzsmQOvhqAJNIazZrKZh0zgJv86cBBclXJkvZ7SsJdzf3xJ2nR+SXZrv0IEL/K5cvLu6910zGb1p7zi9NseCyKsd98LYtXrIhaWBhYt6i6t2zY0NyLuGDfzsXFikq1yjfZTaYEfG7dGtWl89PPyKUXXmjCwkxGbIiBjEukSqODOJvUuLmKdHmmpRRUMzch6Lg/LV8un02aJCeirLczIvI4cCQAfZlJ8/nevWTgqJHy+59/hpI/4wILfu/+fbJwyWJ58Y03ZMT4zxIVIkhx9N7+Wr9O9oRlzWOdMbY9N85PThMXMxcnT5EDDLIoYdZ/sHp1yZI5U4KmFsqO1UBM5myTQc3d+6tWleebP24WAPytVsnbY8bIU126SOMOHeSlvm9aPs/+A4e0rOnNxXv0vvttNSghEJV3P/nE9lR5MRJHyoPwb1H3pW337vLtzJkxYn701/PUxWQv2aUXXSSX6IRDTIt4ixc/Q4C279opg0eP1rExWQ4dDliR/wa4F8alB6GLi4sWPSuTewxxoRG+mjFD3YAN8Sp6bJAT9t5s27FTrYDjdh0eKGdsaEz8PpZwM8Zj5SQ3iNo9t90uHZ9oYS4F97dm7d/W4d4Y9p58/8MC+WnZUvnk66+l9WuvyZczvrMgH2WsfvPNUrRgoeCV4oa7Zab4dtasqK0+h/8Qdxj0wSiZ89OPodVK+mGOrFnljhtulG5t2sqoPn0sXshjVO8+0lkt1oplrzaR8abLXXv3yJAxH8lKtXr+DXMH93i1uuoP33OvFClYUPLmyi1l1F3j3vx2iSBNZyX4f2uE1wa/Jes2bdbfEiEuehOofv8RI2w1gx3RPFDNSEGwdPpcsSJFZOnKlbJx69aAEPlI+nTppaq6Yl1atjRh4fP+Wr9e2nTvJj8uXRLcuX0KRGXJit+lcoUKki9XLrN48KkX6XujYd/+A3L3bbfZLJFUmGWxhjyxwu1srP4/YpkcILIHDx5Uc3+/7NyzW3brACJREleRlbQ0adisGdkapR5tR7xew5uMeO+xE8etDrDgdu7eY67FETXDeQ9xjMSsqHHflAd3BNeVhE4sBzbN0re4ljeZUQ7PYvTKzH0sXLJEer0zVN2ggMXB3+TPk0c6PfW0PP3II1L60kslT86cFsQlYM7/r7zkEqly/fX2eavW/hVagCDgz4pi5Wuvtfbdp2Pmwy8+tzICg7bOXdXNMsf12Gvl3mPCdODgIbsfNsAGdtvHb+V7UG9ca4/WI3lnPFhosNUtfT2+a9F3EZTbrq9oG3AfrFFTihUqFKMNKJNXd3yWdy3q2cqvn0dbBsp/wl6PpvwxArrsan6oTWuLgCcGPoQGwXLRXyy2ckGRwjJu0Fu2isLvsbEBvm6dPNmls/y2Zk2oopIbov/FCheWsQMGSP7cueW43u76jZvk6Ve6WIyEThoJOk63tu2k7l3V9LdU8vFXX6m/3juqPB0adMqIkXKBfm5iBlJsaJrTArrZssssdeOSGtCl/hk4f2obfPP9DB2AS2WHmv60A8KVP09eWyW5ucJ1apXmPy1JkA65dsMGWb56tf3OfV5ywQVmDSzRSQP34fc//7AJK7W2QXYduGVKXib33n6HFNf3sdoV39YJRGGHigl94/Np0/RzVpnAUCdkRxNkrXPXXXLFJSXMlf/j739CkwSuTYlixay8XOOZV16xXfvAc3x2344vym2VKiXYPqzW0UcJjHr76OhPo99409o3dkCXtv+4X3+1EnLJjB9+MDdsg060iCt1WFjr8q6bbpaKV5e1Oub9cQ1S2ggxW6d/P23OXPl+4Q+yVT8HkSRWmFvHVoWrykr1W26WCwoVjuHKeSBKbDKmjoB+zcJDHi0f0I6T58w20QDa/tpSpWTztm0ySS3w7/Ue0ANiNSzP46FUrXyjlr+c5MuT294fV25XDHEZ9MEH0nf4+zZzJxVu8r1u3eVm7aBxzeDMemu1czfr2FHW/PO3dajkhM6bM3sO6fPCC3KLWiHeYCW+skhnM295NxI0+IstWkiTOnVNpSdOnSqtu3WL92/CYe9Rg7vvTpJv65e40KGwLF/u109mL1pkgc1IUAd04GZ1H5SH9F6Y2b2BcPjwERk54TPpMmCg/c6M/Xi9embdUbdxtSU7zK/TAfGKWpHEOWKb59wzG2JX/LFG2vfsqS4IVkPkOseKq1iunIkaO/SZaSld6yZN5Bm1SOiDWC2N2rc3iwxoD5IeOz31VESrOjYMDnb+t3qtq87i+yVDhvQW4Me1wLKJLS7p0qaTZxs1lA8mfh5I44gweSG2BdRy6vD443KHChx1EltgaCOEsc9778kX330XKn8ksp2X1awSEjlz58hp1qYH1h7iOn3BAvs923lZ5L3u3eV6dfmAsV66evWQVZc3dy5pfH9teefjj2XXvr0RFicC++sK5M0jrRo3lho332Llj0SoFKjkrEULTWGTA643btIk7YRxB78YtKy3c7PMAtE0djTQUCyHl76spAx8+WW5rkwZnjT17TF0iHWKejVrqgmcLc6Zi06YRy0droW5yAzMPUXLoqVLT3O3zgUQ9D/VJWygFuoUnbHiEhbwxK3v8OEyYOTImMmPNhb4h+F3UgfDMe2QY2T+zz/HO0mQsPbdvLnSQtsF9zt2nTLTEv96uG0btaRXxiksQNmnz5+nVuWX+r6j+kygLN4wxQr7edkytXj2Bp8RW1p+6J57bIBHA9diWRm3v6C6+S0fbSgfvdlXbipfPvCGWFCOvu+/r6KzOaKwwAm1gDbo6x379JYxahEfUqEOhzrZrhZTk+efl9Gffx6vsAD3N/abb+S5nj3MtQ2zF6zfn7QKCdTNycAvMQjksQUeO7S9e737jgrbrjhWPU+a9b5u0ybp0n+AjBg/3tosEqGRheozm9H5kovla1bLYR3Q8cHg5vgC8kMuOv98c2OSAv4sM2yrxo3UdH3DZjbMRa1VbaR9snb9BotZYFkM6/66zp4FThMY3LiC+fJLWRUn4g7Uzcq//ozKJfJYqwM4MWJ0NkAkiREQxP7zn3+Cz6rIq6hTR7gb2XUWPE9nonBzneQrOi/CEaPjhhGwOAKdjL/j77kebcFPXAJvQPPeJSt/l0GjR8WwkhHjlX/9Jc/10EGiM67HqfJltlk6i17PKx91zAzPTB8bro3l4pWZyexi7WOBBDJ7KipIsOzaqrVMfPttafHQQ+raFIh3IvTiM8zwiFnWLOeppZndyk38z6tXJqy3Rn9gCwnh9Uo85dWBA+Xn5cv0+UAfoo9Sh9ZG6nryk8UG+icgWDPVhZmq7lNSPACLoQX7LVYl5Wc1jXvIov8nM9wrP6I27NOx5lpH6hehUUVAipk9Odmxa3ecqhYOFYcvN7xnr2DDR7YmEoKbxuxr17SZNHmgTiiLlfvm5nfs2WVRc3xEjq0sX6a0DHm1q3Uer8L4mSN7dstiLKrWlP6lrNu40XzexLBl+7aIHT4lOa6d7puZ31sQ24NBUr5UoB6mqnUy48MP5fOh70ibJk3N9fLqZbvOZBOmTEmwPXk//nzbpk1lwuDBMmP0hzJlxAgZ0OklKVaoYGhQ0oG/mztP3Z8/9LdAxyQG1H3wW7bsC3wyFuQN5a4Jlm+UfP/hRzbIKR+DLC7LExik4SLKwLj9xhvijfVEIk3aNBbjIUgbKX4YCUIBlctX0Amsu0z/YLTM/Ogj+XLoUHmiQYMYbhDxjM8mTza3hFqgXjgmdtLsWaEBS50VL3aB9GrfQSapVUQdTFJrsnvbtpI7Z86QwDB+R38+0cQ2qSDeN1eoIEO7ar0P134xerR8MmCA1K9RM0YuG5Ztb7V0Ik2koZZBbZN7MOzRzkJmIDNmQjCrEDh8W2+GwGtiobFQWDpd/Vq1rFOa36rmJY3E65nSZ7B073GTJ1lD8FypSy/Rv2kSCEzp7znUVRrwUmfLb6ETYrKO/fYbM2MTw649e5PVCkwOEIaxX38T/A1SyW0VK8kwtRToSAg8gUhiGM0ffNBO3iMV3tA6JC4WXxIZ9VekQEH5uG9/aV6vvlymAzKftiXnEle96SZLi8+fO0/w3QHBmq/tceJEYKUC6xB30gMxeOjue8xtJkkzUL6ccpm6KE/Ury/DXn89hgDGhmAo1oEH7Vn6kkuDv0UPV4/rMyLB5zStW1fvt5v2o2ssPpFLJ6wSWq+tGjWSejpA6Z9A31y0ZLFNRnwCbfTl9OlmLQPiSV7K6D595O7bbrdgMosnrPjUrlpVBae9ZM54auWQbPItOwLxnzOFDPaWDRvJoM5d5Cb6RcECtrpW5rLL5IUnnpAHa1QPiTpW0m9rAoH72ITEBeWJpD5J4YSadAt+/dU2AUYDLhFR/h7PPWfKGT2p1GTLJM81e0z96UAQlYH982/LLTEOs57OwTo/g6e9+qZDx4xR8Qksq3G6XGAZMpu81aWLVLq6rJmER48dl3GTvjW/N7HxE95PxScsq2ePDCqgLL1eqK4B1iF13OnJp+Q8NXdjDx46T7XKlSVb0PoDAprekmskCGa++uyzOoiKRZzhOficJV7P9T127Kj8oZYFQk9s7vsFC0JuEuUplD+/tG7c2IQ/Nlz+GrW4mj9YTzLqpBEJBurhsAA8FkD2JK6yJQT1VloHYTud5AIuRPCFIEyi9WvWtFVUD5Z5N25hD59aatom991xh1rVZfRaaWwDJAPakk5Tnd6byGNJH2ZJsOBAGkBSqHDVVdLwvvvNFY3dijx3543aL3S8eDC+4hUX8OO4gO8XzFcVjjtoGBtUv9I119gqTbRkzJjeXCE2IaZXUUAkFy5eLI917Kid929ZtXatzRBk3HZ+5hkTkX5qqq/bxJ6hk2Ze339nVRnRs6dcX7asdUKsHrZB9FBTlrX+M4EBkvw1euYwI5Gf8fnbQ9SyqCc1qtxisxKFpH6YDLhv4jKY5j8tWxaKHwDv4REJ7hUr5Ua9flxQrywTp0t3aoWIvkF7YWUsWnLKakH4Hqp1t7bNqU4cE3Vt9XHfnXeqYASyrWNjk2Ws4sYW0eSG/kueiwlL8Llw6BEIC7EjDxJPsQh5P+KDAI/o0VNefvppywfjpAFD74UJi7wT3Ekm7p+XL6dhAq8rtJ/lFOn/I7dUQqSy3f2Z1BqKWH6tP0IXWPgeTOSRDIiQuKC4nqmTnCw97RsBEiaDNswTavbSEROCm611y61Su1o183OPq1hgaj/VpbP5s8y2RO+ZHVOnCcwqnw4caNmXBPtOnAxYJMyQZS+/XAdAQJzGffut9BgyRGeVM/NfKQsd7VyCcUUbI6YsW5KZSv2xC/xTvd/ne/WSms0fkwq175c7GzeSTn37WhwkGrhuKR0UWI3xDeDYVog3CFiJYlnXg/pj9qazx4m+lFMtkRwqQJFkHDEN79MII9aSn/B5uDFx1oE+Tb9Im/ZU37A6CBMI/hYL4ZF775Wx/QfqNVPJ9PnzpeMbb2i7NJbyOvir6c96z7aUJi88b2LjgRs/csIEmT5vnhw4oBaMXjaeGjwN6p34Unx9l9fCJ4i4CNU8ncILtiUnxDxmLlwYVWDXg8olGMuATyi4i4LWrV7d3k8DEVMhQY6kIetMx4/J3J9+klFa4VgpzAysSt1+Q6WARXVSu6V+Hp2ejkGiFIHLboMH23JcXDN1QvDVJHzWuQj3y32R4/Jwm9ZyR8OG0qFXT/n4q68taxpBYSZieTna++eaOTH19WfCnP4e3CJ2KHtY4p2KINeND9xXi7tE+F4pO6cnLB6BqxrIPveXaPahRfBwYsB9YzVOmzdH7mra1KxwMoFX/fmHuSEsefO6ud5hS97036lz50jzF1+UR597Tq2bX8z9jxZ0IJIbeiaEej8xCy/IlJxgMpEnwdJsYgYq6njr9RXNp4yvgyEUNlPoQCZy/ebw981iCY8fkQ9B+jdnAOMbUg4yLrGMvGvzHK+NGv+ZvNy/vy2FJqa8sSFwmdoHsU4qCOymbdvkMe18T6kIz1Hh3X/wgIk/QhyoN+ok/BEdZj2cYZ0R0I39p9GIM+0X16TIqky+XKcWBxiMTHSJRstFXIT+YeUMPu0X9Dv6cuvXukr7Hj1sxQvhRUiiWRzBNaLPEyhu+eqr8utv6jpFCcMhIUGPllDr4eOSb+KH9bJ1x3Z5fehQ2bZrpzZM9E1DmVi6CzdtY4P4ZAoGnki6WrF6dQxhARoLs5uT8Gqp2d/97cGye99eKX3pZXZtOt3UOXOk9lNP6mtDZM9edjVHr/aRuFD9Uj/qMikEBHSfzWqkw7OniI5oaIfCUri4aDFL78bfH9W7t2WSRk0S+iTmeHhmKSM6kDUaf3+hrUnMizQR4FqULFE8+FsgXsEhaIk9NuHYiWMy+MPRcleTxrYBcs3atTGsrOSGvsnu/Mn2nWCHQ/2ZQc+qU8mLi9vWBbY/NH7gAftJYiiJfrShN16w1AjA7z7DmGFSCbUmBSLrMHGrNNFBB575wwLpMUQFZocKTBTqC1ama6+VEhdcGFrLD4frELVmhuP/bBA7cjRyAhGvs7z357r1Mvfnn+X1du1C9/rLb79Ju549LEjGURPRzA7xk0rKly59zrlFxJ3GfPWl/LriNxtogLVx6YUX2V6bb4e9L+MGDZI31QTH38ciJDB5NsCVCA8SUr5A+nz8ioWwYFVE6lMZtX0Jhnr3wHtwdX9hT5k9Ex3kayFK7KXqN3yE1HnmGXllwIDTJrHkgLGyYvUfMm3uPGsvoB+R7Em7fDtsuIzp10/6d3rJEkHbN3tM2jRpJt3btJPRfd6Qb94bJs+qm5snZ66gBZLUvnzmxOj9nFCVNbM/xycysCdMnWL7RbxNVNFAp3vknnsiWgFUHuajt0zM9wmlTx/3YMCPZzl04EsvW84Ef89KEFsCdsWR5XkmUGbqMva+mZSGVYSvp88ICQuw94tjBmrdeqvVCTkUZGOa8FrnPDtgZYQH8Mns/ujLL+JtE8Riw5YtNtNHgsnpyhKXSF4daB70w1cGDgydzJYQ1BUb+FartYKYEKc7oG7kZRddHBy8yQvuKQl03nlK3EM+dbE/6NNHalW5VQrlz2f7vZhUqTNef+Lll+Shtq1tSwUrSPVq1pL31Z26vHgJez2liPHJhfPlC2Sw+lSgQ+qa/LhsqSVLAZ2DGEA4kXSWRB5moUhN+dPyZWb60dBXFC8u11xZKmKFsgp0iVpAg7QBvGg+GZzdhwy2/SeJzWOJD3aVMkijzeY8WxD/Qow9sFruuf12KZAvcJh6+GChbYiTJdaFOFMQZBL5PEFGVLAWflx2Kn0/BvocZXtlQH9bOo8E91NI763OXdVCViTXJT3h1UEDbZWFa0e8vD4QFnZ4c4bLqX1VqSz9/1Z1Q8LrK7nARV+xZnXonok9srRNnw0lNHroxwd2hK+11AE2jXYb/JZtBr5CRZUs84J58wXffPaJMQpRQrL+ssRxBm5ywCqEZ+7hTy5a8qtVKKDa7KglfZlZwmv0wvnyWz5DunSnu2wMAA7v4f34m2RAkicQHpxmFmaZuf9LncwvBczpHkPetj0zXnmSAzocp90RQ/ADBIIO5Z2ZE+2DIDcdllR2D6rXW1Wjrvmd/zMAsQiIURHsPRswiMpdeaXlygDlQPzbq1XFtn/+z73zPP2F8mFx/hgrFyc2GVW07rvjThMED9qbncbPvvqqzfTEoZhcAvVw0l7fpvX18ddfW0CUTXqeC8QY4aweEjL9gP7D/iMPXPRNW7cE7l1/p3zAz+07d9kpBpyzApSRiZZxlE7bmXFQt/pdKWZBx/hUZvzbK1WS0RMnyrLVq0I3kpzQcJu3btcOfMJWZN4dO1ZeKVQ4dLhO98GDtUNkkCrXXS9VK1c2U52cgGcefdRmDw5WDhcDOt3Izz5TM/VC8zNJOR/4cmf7ChNiKFgPl5coIXfceKOcH+xgCEuvd9+VD7/4wj4zucASwLQnuObXShGDvWH79lYniYFAIBs1Lypyvs50fwefPSkjx4+3WMe1pUuZILMb96elS2W81vNvq1fHcKH8hEFFH2hWp668rqJPu3hWRsuuXaVCmdI2e2dIn8HSG7BYKV9Cu/hpfzJ9CVC37t5ddgdzQvg7ckeWrFwlV5W8TC7Sa3MWDSKD4HKODNe3GFxQWMhArli2rA7YGvG630mBNrhOP2P6gvn2udTBV9/PsKxqgris6mKxLfn9d/lm5ky17hbphH16HVCfLCnfcM218v6n42y39NnmNP+BTWd1qle3Hah+wHeosKWezWnkpGCpcBYHy3ykfq/bvElmLVxoHYxZIxDUO2kzWrtmzayjhMdfaACWF4dpBRLYw2JgpaZp3TryWps28mrr1tLo/vulqLp7XIccjj7D3rMT4JNTWIABz54cUub9conobH9vWG8CkZgH+R0kPj187702+3pwpGnn/v2kQetWUq/Vs9LwuXbqKr4tv/72m9WPH6Z/XJDqjpuGG8xABtp3+84d8vWMGZZK0Pf9YTJ83KcWlPXKRywtvnKy7YHNj60aNpJcOXIGn8UqwArcKpNnz5Kh6vr0ee9duz59Y+HiX3Xi2h8SFgY9llX75s0lr7q8fsHn4B6ymRbos0yGb2q5yEmqr230SNu28lLfvnZ0he1BiuPeqRMmVM5oSQlOExf2fdx96622byM5zCkCT7gk1W++xSL3JYsXNxXGquAsCw4GItBLwGzSrJmhQBuZhpy63vWttwS3hweC1KH54zH2NQCz+XAVqN7vvWe+JxVOh2MQ8aCSSTxaseYP28o+XC2dcOsnOcDq4wCeGrdUOeeWoIHuR9zp+quuMhcTC8CD+sN1wsXEcqH+MFo5JgChPltBQdqJ1PjX27Yzq5V2ttyZILgGWBbeah6uFLuF2WgZEhf9SXnDxYb/0Q/Y0IoFg2vMIA4HEcG98twjD1YpcbcpDyuMbD70sz64djG15LHUvS0ClAch5UhYjjfYvH2bWVQ8z33xXVlxueHEaQgApwQxztAF2gRzil2Xs88gJyA2mGWP1X3QYjmYdRx1yGoEAU8ajMrBqmDVgj0WCAh7F/brrIFiE/ydMmeOfWXHxGlT5XcVJXaQxg7AsmELM3b6/AUWyzmij11qpWD5/K4m7sRp0yx4G8hYTL7gLdCR2TXa5/kXzLIK79hJQq+D+T5VZyg6OAPvTB8F8uS1LRLM4hXKlDEBwfy3wcRn6T9kudJJST5jAuCrYpj52L5BByXYz4lnlg2tg5Gl2b/WrTd3lA2hZS+/QsWrbGA0xwGTCMc+8u0LHBfALuUb2IEeHBxYfOQtkRbBKoklrp3g3NmAhYJ1yD3k1r/niMdeHTrIlLlzZcu2bXoLJ1Vw0toXmcVOvuT/fAbicFvFGyz2x8TmHV1JHSBk1AHX4FiBPDlzWC4U9cARHgXyciZ0TGFh0JOQyfkqVg9qJbARlv4dF4gkW1QIMvM39J0qWmbGAaRVCxPBRFzXqyVPWT3Bo4zUAUdO0tdqV61mGx3X/P2PZSpz9CQbCzm/GujrS35fqdc4Zp/FDm2+2ofPBER1mtYfJxxaWdQ1vV8nH8ZlXFAeyk9siL8pmC+vxaG8I048In4pGlBpnITfc+jQJPlrVODFxYqZYORRk3TavHlm/uJXcqzBd3pj9WvVtINoBo3+wDpB+dJl5N1PPrY9L2cCHRTFJpDL3SE8Zj76AOVFLDn8u7Y2SnKvtDH4o102jQsamEPRGdDMjDQ51/1bLRVcSjYoIsTsYeHoyUpXl5NypUpZnAY31vviMISHVR3qlU5JnXq7pBnG1HlsqzI2xMgCllGg27GjOXPmTKHVHOA1BiCdmAmH4y6wdDlUHYuzoA4QxIMvtOPza6mrgnsHDIre7TvY0ro2jj0XG7u+3j8LB5zz+8PixWrxrrXJjPbkUParLi8p16r1zgAmzhGXtUIa/r79B7U+g3lD+vfUQWzLKBw+e+9+Dtg+lceSKWMmndRjnqeLIGxTl5DtK/N++Vkng0BQHgGroGOEMcSRm8TFvGQ7ykl5vRR+XiNWyXgGLDHqyNsWQT2TxxPoJbRjKhWprPF6LVh41DvtA1iQXNPLG/OIU1yAjsDJ80M++tBmkOSGiixetJgFXDlik0DdvwnKT0NyOlmL+g3ibZBzmfAuEN65zyaUgM5Kn2NpmS8tW7dxkzx8z91WrxTRKxoWCoOAwUe8pM3r3UPL0czIw3v0lCsvvdQELz74TO89MYaBflDK1EL8eGVMqTZKLPGKCy+hsO9/OlYGf/ih+ebxvP0/BdYR7kPTOnXlyYcftjwcx5lDHIXgftdBAy2uQOCdVaxP+vc3qxdLgEHFg5VGZmK+I4qzgFk2pl/yGit1ZBt7X3rnSDlOi7mEQ2Nh6lyplkU+nRE4IwUz678uMARsiYE8//gTthLlhCV5IAY09OOP7QRD+hgHPfG1F1g0LBPT6/bpBEfcBreZRDhMeq8/4lq3fPRRKaVWi59BV0d0xGu5hEPcYuHiJfJ87z6ybtMG87v+ayKD2BJ34KjB19q0tW8VcJ04+SCVoFPfN+17imIH3W2iC8YxDgXjB+GkTZtO7r/zDunY4kmLFTlSnqjFBXgr6ePvjv1ERo2fYHssjp04wQvBd/x/QsdmiR5rheBz49oPBFYD9Pl/h/f774D+RTZs806dZPmqVaEgaXzQNsRkOJ6jS8tnhb03rk3ODRIlLsC7Wb7jIOBhn34qX0ybalF3LpPIS53TWAfVjktshcTCmlVutWM0WfniNTq1I/nh4KPt6uqw9YCtGRwLEWmXOrLOsjErkCRM1q9ZS7LFcSKdI2VItLiEw9IXgTfSqCfPnmNLmpaDwhLbv3jw4frwVZssd95+ww1S+ZprLECIoDhROTvgFnGoFTkYfCPAPxs22JI44oEFSR4O5x3fqG3D0q9zT889kiQuwB8jMjwI9vK1lnSEjVu3WPIVz/8boHPSaflWPZKZSApjhYLnnaikDHRN61t0UX14HdXaQ39a2/AIPO04x0iyuMSGy4U//k14IuLExOFIOskuLg6HwwHOUXU4HL7gxMXhcPiCExeHw+ELTlwcDocvOHFxOBy+4MTF4XD4ghMXh8PhC05cHA6HLzhxcTgcvuDExeFw+IITF4fD4QtOXBwOhy84cXE4HL7gxMXhcPiCExeHw+ELTlwcDocvOHFxOBy+4MTF4XD4ghMXh8PhC05cHA6HLzhxcTgcvuDExeFw+IITF4fD4QtOXBwOhy84cXE4HL7gxMXhcPiCExeHw+ELTlwcDocPiPwP5uHxJjqAFSMAAAAASUVORK5CYII=;" vertex="1" parent="-JbPtTbqDn5eovDhBWH9-23">
          <mxGeometry x="15.5" y="43.43000000000001" width="109" height="40.63" as="geometry" />
        </mxCell>
        <mxCell id="-JbPtTbqDn5eovDhBWH9-26" value="" style="endArrow=classic;startArrow=classic;html=1;rounded=0;exitX=1;exitY=1;exitDx=0;exitDy=0;" edge="1" parent="-JbPtTbqDn5eovDhBWH9-8">
          <mxGeometry width="50" height="50" relative="1" as="geometry">
            <mxPoint x="144.00000000000023" y="412" as="sourcePoint" />
            <mxPoint x="214.28999999999996" y="411.44384956218994" as="targetPoint" />
          </mxGeometry>
        </mxCell>
        <mxCell id="-JbPtTbqDn5eovDhBWH9-27" value="" style="endArrow=classic;startArrow=none;html=1;rounded=0;exitX=1;exitY=0.25;exitDx=0;exitDy=0;entryX=0.115;entryY=0.523;entryDx=0;entryDy=0;entryPerimeter=0;startFill=0;" edge="1" parent="-JbPtTbqDn5eovDhBWH9-8" target="-JbPtTbqDn5eovDhBWH9-16">
          <mxGeometry width="50" height="50" relative="1" as="geometry">
            <mxPoint x="143.99999999999977" y="381.0000000000001" as="sourcePoint" />
            <mxPoint x="190" y="270" as="targetPoint" />
            <Array as="points">
              <mxPoint x="170" y="380" />
              <mxPoint x="170" y="350" />
            </Array>
          </mxGeometry>
        </mxCell>
        <mxCell id="-JbPtTbqDn5eovDhBWH9-28" value="" style="endArrow=classic;html=1;rounded=0;entryX=0.5;entryY=0;entryDx=0;entryDy=0;exitX=0.5;exitY=1;exitDx=0;exitDy=0;" edge="1" parent="-JbPtTbqDn5eovDhBWH9-8" source="-JbPtTbqDn5eovDhBWH9-13" target="-JbPtTbqDn5eovDhBWH9-23">
          <mxGeometry width="50" height="50" relative="1" as="geometry">
            <mxPoint x="140" y="350" as="sourcePoint" />
            <mxPoint x="190" y="300" as="targetPoint" />
          </mxGeometry>
        </mxCell>
        <mxCell id="-JbPtTbqDn5eovDhBWH9-29" style="edgeStyle=orthogonalEdgeStyle;rounded=0;orthogonalLoop=1;jettySize=auto;html=1;exitX=1;exitY=0.5;exitDx=0;exitDy=0;entryX=0.066;entryY=0.483;entryDx=0;entryDy=0;entryPerimeter=0;" edge="1" parent="-JbPtTbqDn5eovDhBWH9-8" target="-JbPtTbqDn5eovDhBWH9-17">
          <mxGeometry relative="1" as="geometry">
            <Array as="points">
              <mxPoint x="280" y="396" />
              <mxPoint x="280" y="350" />
            </Array>
            <mxPoint x="143.99999999999977" y="396.0000000000001" as="sourcePoint" />
          </mxGeometry>
        </mxCell>
        <mxCell id="-JbPtTbqDn5eovDhBWH9-30" value="Docker" style="swimlane;whiteSpace=wrap;html=1;collapsible=0;swimlaneLine=0;align=left;fillStyle=auto;swimlaneFillColor=light-dark(#FFFFFF,#415666);fillColor=light-dark(#FFFFFF,#2E3E49);strokeColor=default;strokeWidth=1;" vertex="1" parent="-JbPtTbqDn5eovDhBWH9-2">
          <mxGeometry x="20" y="338.75" width="150" height="170" as="geometry" />
        </mxCell>
        <mxCell id="-JbPtTbqDn5eovDhBWH9-31" value="&lt;span style=&quot;background-color: light-dark(rgb(255, 255, 255), rgb(65, 86, 102));&quot;&gt;Docker Image&lt;/span&gt;" style="image;sketch=0;aspect=fixed;html=1;points=[];align=center;fontSize=12;image=img/lib/mscae/Docker.svg;" vertex="1" parent="-JbPtTbqDn5eovDhBWH9-30">
          <mxGeometry x="44.51" y="100" width="51.83" height="42.5" as="geometry" />
        </mxCell>
        <mxCell id="-JbPtTbqDn5eovDhBWH9-32" value="Dockerfile" style="whiteSpace=wrap;html=1;shape=mxgraph.basic.document;fillColor=light-dark(#FFFFFF,#578ABD);" vertex="1" parent="-JbPtTbqDn5eovDhBWH9-30">
          <mxGeometry x="44.51" y="30" width="55.49" height="47" as="geometry" />
        </mxCell>
        <mxCell id="-JbPtTbqDn5eovDhBWH9-33" style="edgeStyle=orthogonalEdgeStyle;rounded=0;orthogonalLoop=1;jettySize=auto;html=1;exitX=0.5;exitY=1;exitDx=0;exitDy=0;exitPerimeter=0;entryX=0.5;entryY=0.07;entryDx=0;entryDy=0;entryPerimeter=0;" edge="1" parent="-JbPtTbqDn5eovDhBWH9-30" source="-JbPtTbqDn5eovDhBWH9-32" target="-JbPtTbqDn5eovDhBWH9-31">
          <mxGeometry relative="1" as="geometry" />
        </mxCell>
        <mxCell id="-JbPtTbqDn5eovDhBWH9-34" value="Authentication" style="swimlane;whiteSpace=wrap;html=1;collapsible=0;swimlaneLine=0;align=left;fillStyle=auto;swimlaneFillColor=light-dark(#FFFFFF,#415666);fillColor=light-dark(#FFFFFF,#2E3E49);strokeColor=default;strokeWidth=1;" vertex="1" parent="-JbPtTbqDn5eovDhBWH9-2">
          <mxGeometry x="20" y="40" width="150" height="80" as="geometry" />
        </mxCell>
        <mxCell id="-JbPtTbqDn5eovDhBWH9-35" value="" style="shape=image;verticalLabelPosition=bottom;labelBackgroundColor=none;verticalAlign=top;aspect=fixed;imageAspect=0;image=https://www.keycloak.org/resources/images/icon.svg;" vertex="1" parent="-JbPtTbqDn5eovDhBWH9-34">
          <mxGeometry x="10.230000000000018" y="30" width="49.77" height="45" as="geometry" />
        </mxCell>
        <mxCell id="-JbPtTbqDn5eovDhBWH9-36" value="Keycloak" style="text;html=1;align=center;verticalAlign=middle;whiteSpace=wrap;rounded=0;" vertex="1" parent="-JbPtTbqDn5eovDhBWH9-34">
          <mxGeometry x="70" y="30" width="60" height="30" as="geometry" />
        </mxCell>
        <mxCell id="-JbPtTbqDn5eovDhBWH9-37" style="edgeStyle=orthogonalEdgeStyle;rounded=0;orthogonalLoop=1;jettySize=auto;html=1;exitX=1;exitY=0.5;exitDx=0;exitDy=0;exitPerimeter=0;entryX=0;entryY=0.5;entryDx=0;entryDy=0;" edge="1" parent="-JbPtTbqDn5eovDhBWH9-2" source="-JbPtTbqDn5eovDhBWH9-4" target="-JbPtTbqDn5eovDhBWH9-13">
          <mxGeometry relative="1" as="geometry" />
        </mxCell>
        <mxCell id="-JbPtTbqDn5eovDhBWH9-38" style="edgeStyle=orthogonalEdgeStyle;rounded=0;orthogonalLoop=1;jettySize=auto;html=1;entryX=0;entryY=0.5;entryDx=0;entryDy=0;" edge="1" parent="-JbPtTbqDn5eovDhBWH9-2" source="-JbPtTbqDn5eovDhBWH9-7" target="-JbPtTbqDn5eovDhBWH9-11">
          <mxGeometry relative="1" as="geometry">
            <mxPoint x="100" y="202.5" as="sourcePoint" />
            <Array as="points" />
          </mxGeometry>
        </mxCell>
        <mxCell id="-JbPtTbqDn5eovDhBWH9-39" value="User" style="text;html=1;align=center;verticalAlign=middle;whiteSpace=wrap;rounded=0;" vertex="1" parent="1">
          <mxGeometry x="40" y="240" width="60" height="30" as="geometry" />
        </mxCell>
        <mxCell id="-JbPtTbqDn5eovDhBWH9-40" value="&lt;div&gt;Deployment&lt;/div&gt;" style="swimlane;whiteSpace=wrap;html=1;swimlaneFillColor=none;connectable=1;noLabel=0;swimlaneHead=1;absoluteArcSize=0;fixDash=0;dropTarget=1;collapsible=0;horizontal=1;swimlaneBody=1;fillOpacity=0;strokeOpacity=100;align=left;fontStyle=1;fontSize=16;dashed=1;strokeWidth=3;swimlaneLine=0;fillColor=light-dark(#FFFFFF,#415666);" vertex="1" parent="1">
          <mxGeometry x="180" y="660" width="230" height="110" as="geometry" />
        </mxCell>
        <mxCell id="-JbPtTbqDn5eovDhBWH9-41" value="" style="image;sketch=0;aspect=fixed;html=1;points=[];align=center;fontSize=12;image=img/lib/mscae/Docker.svg;" vertex="1" parent="-JbPtTbqDn5eovDhBWH9-40">
          <mxGeometry x="28.169999999999987" y="33.75" width="51.83" height="42.5" as="geometry" />
        </mxCell>
        <mxCell id="-JbPtTbqDn5eovDhBWH9-42" value="" style="endArrow=classic;html=1;rounded=0;" edge="1" parent="-JbPtTbqDn5eovDhBWH9-40">
          <mxGeometry width="50" height="50" relative="1" as="geometry">
            <mxPoint x="80" y="54.76" as="sourcePoint" />
            <mxPoint x="130" y="55" as="targetPoint" />
          </mxGeometry>
        </mxCell>
        <mxCell id="-JbPtTbqDn5eovDhBWH9-43" value="Jenga" style="swimlane;whiteSpace=wrap;html=1;container=0;" vertex="1" parent="-JbPtTbqDn5eovDhBWH9-40">
          <mxGeometry x="130" y="15" width="90" height="80" as="geometry">
            <mxRectangle x="130" y="15" width="70" height="30" as="alternateBounds" />
          </mxGeometry>
        </mxCell>
        <mxCell id="-JbPtTbqDn5eovDhBWH9-44" value="App" style="text;html=1;align=center;verticalAlign=middle;resizable=0;points=[];autosize=1;strokeColor=none;fillColor=none;" vertex="1" parent="-JbPtTbqDn5eovDhBWH9-43">
          <mxGeometry y="25" width="40" height="30" as="geometry" />
        </mxCell>
        <mxCell id="-JbPtTbqDn5eovDhBWH9-45" value="Libs" style="text;html=1;align=center;verticalAlign=middle;resizable=0;points=[];autosize=1;strokeColor=none;fillColor=none;" vertex="1" parent="-JbPtTbqDn5eovDhBWH9-43">
          <mxGeometry x="-5" y="50" width="50" height="30" as="geometry" />
        </mxCell>
        <mxCell id="-JbPtTbqDn5eovDhBWH9-46" value="" style="outlineConnect=0;dashed=0;verticalLabelPosition=bottom;verticalAlign=top;align=center;html=1;shape=mxgraph.aws3.ec2_compute_container;fillColor=light-dark(#F58534,#578ABD);gradientColor=none;" vertex="1" parent="-JbPtTbqDn5eovDhBWH9-43">
          <mxGeometry x="40" y="40" width="40" height="28.25" as="geometry" />
        </mxCell>
        <mxCell id="-JbPtTbqDn5eovDhBWH9-47" value="Docker Image" style="text;html=1;align=center;verticalAlign=middle;whiteSpace=wrap;rounded=0;" vertex="1" parent="-JbPtTbqDn5eovDhBWH9-40">
          <mxGeometry x="14.09" y="76.25" width="80" height="30" as="geometry" />
        </mxCell>
        <mxCell id="-JbPtTbqDn5eovDhBWH9-48" value="" style="verticalLabelPosition=bottom;html=1;verticalAlign=top;align=center;strokeColor=none;fillColor=#00BEF2;shape=mxgraph.azure.github_code;pointerEvents=1;" vertex="1" parent="1">
          <mxGeometry x="280" y="604" width="30" height="30" as="geometry" />
        </mxCell>
        <mxCell id="-JbPtTbqDn5eovDhBWH9-49" value="Github Actions" style="text;html=1;align=center;verticalAlign=middle;whiteSpace=wrap;rounded=0;" vertex="1" parent="1">
          <mxGeometry x="310" y="604" width="60" height="30" as="geometry" />
        </mxCell>
        <mxCell id="-JbPtTbqDn5eovDhBWH9-50" value="" style="endArrow=classic;html=1;rounded=0;exitX=0.5;exitY=1;exitDx=0;exitDy=0;entryX=0.411;entryY=0.016;entryDx=0;entryDy=0;entryPerimeter=0;" edge="1" parent="1" source="-JbPtTbqDn5eovDhBWH9-30" target="-JbPtTbqDn5eovDhBWH9-40">
          <mxGeometry width="50" height="50" relative="1" as="geometry">
            <mxPoint x="500" y="600" as="sourcePoint" />
            <mxPoint x="550" y="550" as="targetPoint" />
          </mxGeometry>
        </mxCell>
        <mxCell id="-JbPtTbqDn5eovDhBWH9-51" value="" style="endArrow=classic;startArrow=classic;html=1;rounded=0;exitX=0.833;exitY=0.167;exitDx=0;exitDy=0;exitPerimeter=0;" edge="1" parent="1" source="-JbPtTbqDn5eovDhBWH9-1">
          <mxGeometry width="50" height="50" relative="1" as="geometry">
            <mxPoint x="100" y="170" as="sourcePoint" />
            <mxPoint x="200" y="130" as="targetPoint" />
          </mxGeometry>
        </mxCell>
        <mxCell id="-JbPtTbqDn5eovDhBWH9-52" value="&lt;span&gt;&lt;span style=&quot;color: light-dark(rgb(0, 0, 0), rgb(255, 255, 255));&quot;&gt;OAuth&lt;/span&gt;&lt;/span&gt;" style="edgeLabel;html=1;align=center;verticalAlign=middle;resizable=0;points=[];" vertex="1" connectable="0" parent="-JbPtTbqDn5eovDhBWH9-51">
          <mxGeometry x="-0.1983" y="3" relative="1" as="geometry">
            <mxPoint as="offset" />
          </mxGeometry>
        </mxCell>
        <mxCell id="-JbPtTbqDn5eovDhBWH9-53" value="Use" style="endArrow=classic;startArrow=classic;html=1;rounded=0;exitX=0.964;exitY=0.742;exitDx=0;exitDy=0;exitPerimeter=0;entryX=0;entryY=0.5;entryDx=0;entryDy=0;" edge="1" parent="1" source="-JbPtTbqDn5eovDhBWH9-1" target="-JbPtTbqDn5eovDhBWH9-3">
          <mxGeometry width="50" height="50" relative="1" as="geometry">
            <mxPoint x="370" y="300" as="sourcePoint" />
            <mxPoint x="420" y="250" as="targetPoint" />
          </mxGeometry>
        </mxCell>
        <mxCell id="-JbPtTbqDn5eovDhBWH9-54" value="" style="endArrow=none;dashed=1;html=1;dashPattern=1 3;strokeWidth=2;rounded=0;fontSize=12;startSize=8;endSize=8;curved=1;entryX=0.498;entryY=0.904;entryDx=0;entryDy=0;exitX=0;exitY=0;exitDx=0;exitDy=0;entryPerimeter=0;" edge="1" parent="1" source="-JbPtTbqDn5eovDhBWH9-62" target="-JbPtTbqDn5eovDhBWH9-25">
          <mxGeometry width="50" height="50" relative="1" as="geometry">
            <mxPoint x="1150" y="310" as="sourcePoint" />
            <mxPoint x="458.9999999999998" y="506" as="targetPoint" />
            <Array as="points" />
          </mxGeometry>
        </mxCell>
        <mxCell id="-JbPtTbqDn5eovDhBWH9-55" value="" style="rounded=0;whiteSpace=wrap;html=1;dashed=1;fillColor=none;" vertex="1" parent="1">
          <mxGeometry x="530" y="600" width="410" height="180" as="geometry" />
        </mxCell>
        <mxCell id="-JbPtTbqDn5eovDhBWH9-56" value="Create Ticket" style="rounded=0;whiteSpace=wrap;html=1;" vertex="1" parent="1">
          <mxGeometry x="540" y="658" width="90" height="40" as="geometry" />
        </mxCell>
        <mxCell id="-JbPtTbqDn5eovDhBWH9-57" value="Edit Ticket" style="rounded=0;whiteSpace=wrap;html=1;" vertex="1" parent="1">
          <mxGeometry x="640" y="658" width="90" height="40" as="geometry" />
        </mxCell>
        <mxCell id="-JbPtTbqDn5eovDhBWH9-58" value="Delete Ticket" style="rounded=0;whiteSpace=wrap;html=1;" vertex="1" parent="1">
          <mxGeometry x="740" y="658" width="90" height="40" as="geometry" />
        </mxCell>
        <mxCell id="-JbPtTbqDn5eovDhBWH9-59" value="Search" style="rounded=0;whiteSpace=wrap;html=1;" vertex="1" parent="1">
          <mxGeometry x="540" y="726" width="90" height="39" as="geometry" />
        </mxCell>
        <mxCell id="-JbPtTbqDn5eovDhBWH9-60" value="Summarize" style="rounded=0;whiteSpace=wrap;html=1;" vertex="1" parent="1">
          <mxGeometry x="640" y="726" width="90" height="40" as="geometry" />
        </mxCell>
        <mxCell id="-JbPtTbqDn5eovDhBWH9-61" value="Querry with Context" style="rounded=0;whiteSpace=wrap;html=1;" vertex="1" parent="1">
          <mxGeometry x="740" y="726" width="90" height="40" as="geometry" />
        </mxCell>
        <mxCell id="-JbPtTbqDn5eovDhBWH9-62" value="Ticket Operations:" style="text;html=1;align=center;verticalAlign=middle;whiteSpace=wrap;rounded=0;" vertex="1" parent="1">
          <mxGeometry x="528" y="630" width="120" height="30" as="geometry" />
        </mxCell>
        <mxCell id="-JbPtTbqDn5eovDhBWH9-63" value="Querry Operations:" style="text;html=1;align=center;verticalAlign=middle;whiteSpace=wrap;rounded=0;" vertex="1" parent="1">
          <mxGeometry x="530" y="698" width="120" height="30" as="geometry" />
        </mxCell>
        <mxCell id="-JbPtTbqDn5eovDhBWH9-64" value="Link Similar Tickets" style="rounded=0;whiteSpace=wrap;html=1;" vertex="1" parent="1">
          <mxGeometry x="840" y="658" width="90" height="40" as="geometry" />
        </mxCell>
        <mxCell id="-JbPtTbqDn5eovDhBWH9-65" value="&lt;div style=&quot;text-align: left;&quot;&gt;&lt;span style=&quot;background-color: transparent; color: light-dark(rgb(0, 0, 0), rgb(255, 255, 255)); font-size: 16px;&quot;&gt;&lt;b&gt;Langchain Tools&lt;/b&gt;&lt;/span&gt;&lt;/div&gt;" style="text;html=1;align=center;verticalAlign=middle;whiteSpace=wrap;rounded=0;" vertex="1" parent="1">
          <mxGeometry x="527" y="598" width="140" height="30" as="geometry" />
        </mxCell>
      </root>
    </mxGraphModel>
  </diagram>
</mxfile>
